<svg width="165" height="95" viewBox="0 0 165 95" fill="none" xmlns="http://www.w3.org/2000/svg">
<path d="M67 41.8571H49.8571V59H44.1429V41.8571H27V36.1429H44.1429V19H49.8571V36.1429H67V41.8571Z" fill="#323232"/>
<path d="M108.255 44.9646V53.4232C108.255 53.4232 115.277 52.81 115.473 59.3316H107.761L101.531 54.4543L100.936 43.4526L108.255 44.9646Z" fill="white"/>
<path opacity="0.25" d="M101.024 45.0205L101.193 48.2674C103.446 49.1801 105.807 49.7584 108.208 50.0023L108.255 49.8351V46.0239L101.024 45.0205Z" fill="black"/>
<path d="M129.611 38.1085C129.611 38.1085 129.611 42.7698 133.365 49.5631L136.071 53.5624L132.878 61.7981C132.878 61.7981 127.906 62.0767 127.521 65.4141H135.557L141.381 55.8269C141.381 55.8269 139.44 52.6288 140.082 47.5634C140.671 43.801 141.571 40.1013 142.788 36.506L137.126 34.59L129.611 38.1085Z" fill="white"/>
<path d="M133.879 5.48671C134.874 4.58581 135.976 3.81173 137.153 3.18047C139.338 2.06707 141.821 1.73335 144.209 2.23222C146.603 2.7304 148.761 4.03329 150.358 5.93472C151.947 7.83615 152.881 10.2295 153.009 12.7378C153.138 15.2461 152.455 17.7272 151.068 19.791L148.409 17.638C148.633 17.0033 148.707 16.3233 148.626 15.6537C148.545 14.9841 148.308 14.3438 147.943 13.785C147.199 12.673 146.285 11.694 145.237 10.8865C143.113 9.06103 140.502 7.138 137.796 7.91836C136.849 8.19009 136.017 8.79627 135.056 9.01923C134.096 9.24219 132.878 8.88687 132.621 7.91142C132.364 6.93598 133.169 6.10682 133.879 5.48671Z" fill="#4D61FC"/>
<path opacity="0.25" d="M137.113 34.59L130.287 37.8089L129.611 38.2061C129.665 39.1049 129.794 40.0037 129.99 40.8816C130.037 40.8816 140.874 36.0043 141.347 41.446C142.078 38.659 142.808 36.5339 142.808 36.5339L137.113 34.59Z" fill="black"/>
<path d="M133.879 5.48671C134.874 4.58581 135.976 3.81173 137.153 3.18047C139.338 2.06707 141.821 1.73335 144.209 2.23222C146.603 2.7304 148.761 4.03329 150.358 5.93472C151.947 7.83615 152.881 10.2295 153.009 12.7378C153.138 15.2461 152.455 17.7272 151.068 19.791L148.409 17.638C148.633 17.0033 148.707 16.3233 148.626 15.6537C148.545 14.9841 148.308 14.3438 147.943 13.785C147.199 12.673 146.285 11.694 145.237 10.8865C143.113 9.06103 140.502 7.138 137.796 7.91836C136.849 8.19009 136.017 8.79627 135.056 9.01923C134.096 9.24219 132.878 8.88687 132.621 7.91142C132.364 6.93598 133.169 6.10682 133.879 5.48671Z" fill="#323232"/>
<path d="M150.304 18.8295C148.985 17.1065 147.064 15.9854 144.953 15.7081C142.87 15.4189 140.766 15.2838 138.662 15.304C134.454 15.4155 112.666 18.3 112.666 18.3L101.125 15.304L91.655 7.96718C91.655 7.96718 82.489 2.07965 78.2815 2.52557C75.552 2.89137 72.9361 3.87868 70.624 5.4171L68.3579 8.30165L58.9755 11.7854C58.9755 11.7854 59.9428 15.5618 61.4513 16.6626C62.9598 17.7635 65.4423 18.3279 68.0332 18.9967C70.624 19.6656 75.9071 19.5542 78.2815 23.1076C80.6558 26.661 86.2637 32.66 86.2637 32.66C86.2637 32.66 90.363 42.5538 94.5706 44.442C98.7781 46.3302 105.252 48.5528 110.643 47.1036C116.034 45.6543 134.806 36.9938 135.232 36.8823C135.658 36.7708 139.656 33.9977 142.247 38.1086C144.838 42.2194 146.982 46.6647 154.978 49.7722C154.978 49.7722 158.103 51.3259 158.536 54.1059C158.969 56.886 160.566 65.4421 160.566 65.4421C160.566 65.4421 163.907 63.8813 164.124 60.8853C164.34 57.8893 163.15 57.7708 163.15 57.7708L162.291 46.7761C162.291 46.7761 159.483 46.0794 157.007 42.6653C155.546 40.6586 154.302 38.4848 153.3 36.1995C153.672 32.876 153.855 29.5316 153.862 26.1872C153.794 23.874 151.934 20.9198 150.304 18.8295Z" fill="white"/>
<path d="M70.5975 5.41745C72.9096 3.87903 75.5255 2.89171 78.255 2.52592C80.5144 2.28903 84.1943 3.87761 87.1233 5.39652L84.1266 11.3816C83.8209 12.6239 83.2804 13.7917 82.537 14.8187C81.7929 15.8457 80.8594 16.711 79.7906 17.3667C79.357 17.6816 78.8747 17.9178 78.3633 18.0634C77.8065 18.1644 77.2349 18.1359 76.6904 17.9791C76.1458 17.8224 75.6425 17.5416 75.2177 17.1577C74.5954 16.6421 74.088 15.9871 73.4522 15.4785C72.1135 14.5651 70.5583 14.0446 68.9537 13.9735C67.8782 13.8551 66.7214 13.7575 65.8691 13.0677C65.0168 12.378 64.5906 10.9775 64.3065 9.81393V9.77213L68.3111 8.302L70.5975 5.41745Z" fill="#323232"/>
<path d="M103.953 36.0114C103.953 36.0114 100.307 46.4626 96.1398 49.9464C91.9728 53.4301 83.9636 65.4142 83.9636 65.4142H73.5665C73.5665 65.4142 75.4944 61.6936 79.0661 60.9829C79.0661 60.9829 83.8012 58.816 84.5318 56.022C85.2624 53.2281 91.1272 31.9424 91.1272 31.9424C91.1272 31.9424 98.2774 25.8179 101.051 29.9566C103.824 34.0953 103.953 36.0114 103.953 36.0114Z" fill="white"/>
<path d="M79.1542 3.11087C79.8171 2.37162 80.6857 1.8609 81.6415 1.65048C82.5967 1.43937 83.5924 1.53831 84.4914 1.93336C85.6306 2.5472 86.5938 3.45784 87.2852 4.57403C87.9745 5.68534 88.724 6.75488 89.531 7.7791C89.7353 7.96304 89.8814 8.20551 89.9504 8.47585C90.0113 8.88693 89.6866 9.24921 89.3889 9.53488C89.0311 9.91531 88.6266 10.2456 88.1849 10.5173C86.7102 11.3534 84.8838 10.803 83.3279 10.148C82.4411 9.81916 81.6104 9.34885 80.8656 8.75452C80.4868 8.45701 80.1716 8.08286 79.9389 7.65505C79.7062 7.22725 79.5607 6.75485 79.5127 6.26712C79.6886 6.41344 79.0189 3.27809 79.1542 3.11087Z" fill="white"/>
<path d="M79.1542 3.11087C79.8171 2.37162 80.6857 1.8609 81.6415 1.65048C82.5967 1.43937 83.5924 1.53831 84.4914 1.93336C85.6306 2.5472 86.5938 3.45784 87.2852 4.57403C87.9745 5.68534 88.724 6.75488 89.531 7.7791C89.7353 7.96304 89.8814 8.20551 89.9504 8.47585C90.0113 8.88693 89.6866 9.24921 89.3889 9.53488C89.0311 9.91531 88.6266 10.2456 88.1849 10.5173C86.7102 11.3534 84.8838 10.803 83.3279 10.148C82.4411 9.81916 81.6104 9.34885 80.8656 8.75452C80.4868 8.45701 80.1716 8.08286 79.9389 7.65505C79.7062 7.22725 79.5607 6.75485 79.5127 6.26712C79.6886 6.41344 79.0189 3.27809 79.1542 3.11087Z" fill="#323232"/>
<path d="M69.2718 8.54545C69.3259 8.58726 69.4882 8.43399 69.7926 8.34341C69.98 8.2807 70.1802 8.26745 70.3737 8.30578C70.5678 8.3434 70.7491 8.4305 70.902 8.5594C71.2152 8.87224 71.4878 9.2262 71.7137 9.6115C71.9167 9.9111 72.0723 10.0853 72.1264 10.0504C72.1805 10.0156 72.1264 9.79263 71.9843 9.45122C71.8199 8.97325 71.5433 8.54476 71.1793 8.20405C70.9453 8.00618 70.6558 7.89119 70.3541 7.87656C70.118 7.87029 69.8846 7.92815 69.6776 8.04381C69.3191 8.218 69.2312 8.48275 69.2718 8.54545Z" fill="white"/>
<path d="M70.2114 8.04398C70.3609 8.01471 70.5152 8.02864 70.6566 8.08438C70.7986 8.13942 70.9231 8.23416 71.0164 8.35748C71.1355 8.47454 71.2275 8.61876 71.285 8.77832C71.3425 8.93718 71.3641 9.10789 71.3479 9.2772C71.3614 9.38101 71.3479 9.48692 71.3073 9.58377C71.2423 9.73844 71.1429 9.87432 71.0164 9.98092C70.9271 10.0631 70.8209 10.1224 70.7052 10.1551C70.5733 10.1746 70.4381 10.153 70.3183 10.0931C70.1979 10.0339 70.0971 9.93913 70.0288 9.82068C69.9063 9.57682 69.8394 9.30787 69.8326 9.03335C69.8123 8.65711 69.8732 8.18333 70.2114 8.04398Z" fill="white"/>
<path d="M60.2328 11.2562C60.4121 11.2186 60.5967 11.2256 60.7726 11.2771C60.9485 11.3287 61.1095 11.4228 61.2421 11.5524C61.3747 11.6813 61.4754 11.8415 61.535 12.0192C61.5952 12.1968 61.6128 12.3871 61.5857 12.5731C61.583 12.6114 61.5728 12.6483 61.5552 12.6818C61.5377 12.7152 61.5133 12.7445 61.4842 12.7682C61.376 12.8239 61.261 12.7124 61.1595 12.6428C61.0824 12.5982 60.9952 12.5752 60.9059 12.5752C60.8173 12.5752 60.73 12.5982 60.6522 12.6428C60.5372 12.6985 60.4425 12.8448 60.5034 12.9563C60.5642 13.0678 60.6251 13.0608 60.6928 13.1096C60.7828 13.1883 60.8436 13.297 60.8632 13.4169C60.8828 13.5367 60.8612 13.66 60.801 13.7645C60.6806 13.9763 60.5081 14.1519 60.3004 14.2731C60.2341 14.3379 60.155 14.3874 60.0691 14.4202C59.9832 14.4522 59.8912 14.4661 59.7999 14.4613C59.5631 14.4125 59.4413 14.1478 59.3534 13.9178C59.1099 13.2768 58.8663 12.6288 58.6296 11.9878C58.6235 11.953 58.6235 11.9181 58.6296 11.8833C58.6384 11.8485 58.6533 11.8157 58.6742 11.7871C58.6952 11.7586 58.7216 11.7342 58.7514 11.7161C59.2283 11.3726 59.7999 11.197 60.3816 11.2144" fill="#323232"/>
<g opacity="0.1">
<path opacity="0.3" d="M66.7412 30.0945C66.6871 30.1363 67.492 30.9515 69.1155 31.6273C70.0517 32.0837 71.0556 32.3736 72.0852 32.4843C72.7183 32.5387 73.3542 32.4335 73.9387 32.1778C74.536 31.8649 75.0745 31.4448 75.5284 30.9375C75.6873 30.8282 75.8179 30.6797 75.9085 30.5062C75.9985 30.3321 76.0458 30.1384 76.0458 29.9412C76.0458 29.744 75.9985 29.5503 75.9085 29.3761C75.8179 29.2027 75.6873 29.0542 75.5284 28.9448C75.1414 28.4885 74.7795 28.0091 74.446 27.5095C73.8913 26.6296 73.2879 25.783 72.6399 24.9734C72.1867 24.4264 71.6529 23.9561 71.057 23.5799C70.854 23.4329 70.624 23.3311 70.3805 23.2803C71.1442 23.8056 71.8281 24.4438 72.4099 25.1754C72.951 25.8722 73.4854 26.7501 74.1213 27.7395C74.4562 28.2593 74.8221 28.7574 75.2172 29.2305C75.4336 29.4744 75.6298 29.6973 75.6163 29.9272C75.575 30.2032 75.4323 30.4526 75.2172 30.624C74.7998 31.0894 74.308 31.4782 73.7628 31.7736C73.2446 32.0091 72.6778 32.1116 72.1123 32.0732C71.1253 31.9855 70.1573 31.7388 69.2441 31.3417C68.6089 31.1041 67.9913 30.8177 67.3973 30.4847C67.189 30.337 66.9698 30.206 66.7412 30.0945Z" fill="black"/>
</g>
<path opacity="0.2" d="M106.611 44.7765C101.2 43.383 103.831 36.1716 103.831 36.1716C102.458 39.6066 100.875 42.944 99.0967 46.17C102.729 47.3335 106.936 48.0721 110.636 47.0758C113.187 46.379 118.754 44.0937 123.922 41.8432C115.493 45.1876 106.611 44.7765 106.611 44.7765Z" fill="black"/>
<path d="M99.5227 14.1198C98.4809 15.6247 98.8462 17.8125 99.9888 19.2618C101.132 20.711 102.782 21.561 104.44 22.2717C106.097 22.9824 107.822 23.6652 109.175 24.794C111.712 26.919 112.977 30.6466 116.007 31.8938C117.55 32.4582 119.234 32.4582 120.776 31.8938C122.305 31.3295 123.766 30.5839 125.126 29.6782C127.29 28.3613 129.705 26.6124 129.8 24.0275C132.181 24.0275 134.704 23.714 136.565 22.216C138.425 20.718 138.506 17.1994 136.984 15.3181L112.415 18.2097L101.085 15.3391L99.5227 14.1198Z" fill="#4D61FC"/>
<path d="M99.5227 14.1198C98.4809 15.6247 98.8462 17.8125 99.9888 19.2618C101.132 20.711 102.782 21.561 104.44 22.2717C106.097 22.9824 107.822 23.6652 109.175 24.794C111.712 26.919 112.977 30.6466 116.007 31.8938C117.55 32.4582 119.234 32.4582 120.776 31.8938C122.305 31.3295 123.766 30.5839 125.126 29.6782C127.29 28.3613 129.705 26.6124 129.8 24.0275C132.181 24.0275 134.704 23.714 136.565 22.216C138.425 20.718 138.506 17.1994 136.984 15.3181L112.415 18.2097L101.085 15.3391L99.5227 14.1198Z" fill="#323232"/>
<path opacity="0.3" d="M103.831 36.1716C103.831 36.1716 100.943 43.3899 97.6897 48.2602" stroke="black" stroke-width="0.75" stroke-miterlimit="10" stroke-linecap="round"/>
<path opacity="0.3" d="M102.478 33.7681C102.478 33.7681 102.553 35.7189 101.443 36.7014" stroke="black" stroke-width="0.75" stroke-miterlimit="10" stroke-linecap="round"/>
<path opacity="0.3" d="M138.933 26.1594C138.033 28.0267 137.593 30.096 137.654 32.1793" stroke="black" stroke-width="0.75" stroke-miterlimit="10" stroke-linecap="round"/>
<path opacity="0.3" d="M138.587 30.5626C138.587 30.5626 138.04 32.8689 138.899 33.9419" stroke="black" stroke-width="0.75" stroke-miterlimit="10" stroke-linecap="round"/>
<path d="M41.36 89L45.446 76.04H48.623L52.709 89H50.477L46.769 77.372H47.255L43.592 89H41.36ZM43.637 86.192V84.167H50.441V86.192H43.637ZM58.4222 93.59C57.8822 93.59 57.3632 93.506 56.8652 93.338C56.3732 93.17 55.9292 92.927 55.5332 92.609C55.1372 92.297 54.8132 91.919 54.5612 91.475L56.5592 90.485C56.7452 90.839 57.0062 91.1 57.3422 91.268C57.6842 91.442 58.0472 91.529 58.4312 91.529C58.8812 91.529 59.2832 91.448 59.6372 91.286C59.9912 91.13 60.2642 90.896 60.4562 90.584C60.6542 90.278 60.7472 89.894 60.7352 89.432V86.669H61.0052V79.28H62.9042V89.468C62.9042 89.714 62.8922 89.948 62.8682 90.17C62.8502 90.398 62.8172 90.62 62.7692 90.836C62.6252 91.466 62.3492 91.982 61.9412 92.384C61.5332 92.792 61.0262 93.095 60.4202 93.293C59.8202 93.491 59.1542 93.59 58.4222 93.59ZM58.2332 89.27C57.3392 89.27 56.5592 89.045 55.8932 88.595C55.2272 88.145 54.7112 87.533 54.3452 86.759C53.9792 85.985 53.7962 85.112 53.7962 84.14C53.7962 83.156 53.9792 82.28 54.3452 81.512C54.7172 80.738 55.2422 80.129 55.9202 79.685C56.5982 79.235 57.3962 79.01 58.3142 79.01C59.2382 79.01 60.0122 79.235 60.6362 79.685C61.2662 80.129 61.7432 80.738 62.0672 81.512C62.3912 82.286 62.5532 83.162 62.5532 84.14C62.5532 85.106 62.3912 85.979 62.0672 86.759C61.7432 87.533 61.2602 88.145 60.6182 88.595C59.9762 89.045 59.1812 89.27 58.2332 89.27ZM58.5662 87.326C59.1482 87.326 59.6162 87.194 59.9702 86.93C60.3302 86.66 60.5912 86.285 60.7532 85.805C60.9212 85.325 61.0052 84.77 61.0052 84.14C61.0052 83.504 60.9212 82.949 60.7532 82.475C60.5912 81.995 60.3362 81.623 59.9882 81.359C59.6402 81.089 59.1902 80.954 58.6382 80.954C58.0562 80.954 57.5762 81.098 57.1982 81.386C56.8202 81.668 56.5412 82.052 56.3612 82.538C56.1812 83.018 56.0912 83.552 56.0912 84.14C56.0912 84.734 56.1782 85.274 56.3522 85.76C56.5322 86.24 56.8052 86.621 57.1712 86.903C57.5372 87.185 58.0022 87.326 58.5662 87.326ZM65.428 89V79.28H67.345V81.647L67.111 81.341C67.231 81.017 67.39 80.723 67.588 80.459C67.792 80.189 68.035 79.967 68.317 79.793C68.557 79.631 68.821 79.505 69.109 79.415C69.403 79.319 69.703 79.262 70.009 79.244C70.315 79.22 70.612 79.232 70.9 79.28V81.305C70.612 81.221 70.279 81.194 69.901 81.224C69.529 81.254 69.193 81.359 68.893 81.539C68.593 81.701 68.347 81.908 68.155 82.16C67.969 82.412 67.831 82.7 67.741 83.024C67.651 83.342 67.606 83.687 67.606 84.059V89H65.428ZM76.8606 89.27C75.8766 89.27 75.0126 89.057 74.2686 88.631C73.5246 88.205 72.9426 87.614 72.5226 86.858C72.1086 86.102 71.9016 85.232 71.9016 84.248C71.9016 83.186 72.1056 82.265 72.5136 81.485C72.9216 80.699 73.4886 80.09 74.2146 79.658C74.9406 79.226 75.7806 79.01 76.7346 79.01C77.7426 79.01 78.5976 79.247 79.2996 79.721C80.0076 80.189 80.5326 80.852 80.8746 81.71C81.2166 82.568 81.3456 83.579 81.2616 84.743H79.1106V83.951C79.1046 82.895 78.9186 82.124 78.5526 81.638C78.1866 81.152 77.6106 80.909 76.8246 80.909C75.9366 80.909 75.2766 81.185 74.8446 81.737C74.4126 82.283 74.1966 83.084 74.1966 84.14C74.1966 85.124 74.4126 85.886 74.8446 86.426C75.2766 86.966 75.9066 87.236 76.7346 87.236C77.2686 87.236 77.7276 87.119 78.1116 86.885C78.5016 86.645 78.8016 86.3 79.0116 85.85L81.1536 86.498C80.7816 87.374 80.2056 88.055 79.4256 88.541C78.6516 89.027 77.7966 89.27 76.8606 89.27ZM73.5126 84.743V83.105H80.1996V84.743H73.5126ZM87.3558 93.59C86.8158 93.59 86.2968 93.506 85.7988 93.338C85.3068 93.17 84.8628 92.927 84.4668 92.609C84.0708 92.297 83.7468 91.919 83.4948 91.475L85.4928 90.485C85.6788 90.839 85.9398 91.1 86.2758 91.268C86.6178 91.442 86.9808 91.529 87.3648 91.529C87.8148 91.529 88.2168 91.448 88.5708 91.286C88.9248 91.13 89.1978 90.896 89.3898 90.584C89.5878 90.278 89.6808 89.894 89.6688 89.432V86.669H89.9388V79.28H91.8378V89.468C91.8378 89.714 91.8258 89.948 91.8018 90.17C91.7838 90.398 91.7508 90.62 91.7028 90.836C91.5588 91.466 91.2828 91.982 90.8748 92.384C90.4668 92.792 89.9598 93.095 89.3538 93.293C88.7538 93.491 88.0878 93.59 87.3558 93.59ZM87.1668 89.27C86.2728 89.27 85.4928 89.045 84.8268 88.595C84.1608 88.145 83.6448 87.533 83.2788 86.759C82.9128 85.985 82.7298 85.112 82.7298 84.14C82.7298 83.156 82.9128 82.28 83.2788 81.512C83.6508 80.738 84.1758 80.129 84.8538 79.685C85.5318 79.235 86.3298 79.01 87.2478 79.01C88.1718 79.01 88.9458 79.235 89.5698 79.685C90.1998 80.129 90.6768 80.738 91.0008 81.512C91.3248 82.286 91.4868 83.162 91.4868 84.14C91.4868 85.106 91.3248 85.979 91.0008 86.759C90.6768 87.533 90.1938 88.145 89.5518 88.595C88.9098 89.045 88.1148 89.27 87.1668 89.27ZM87.4998 87.326C88.0818 87.326 88.5498 87.194 88.9038 86.93C89.2638 86.66 89.5248 86.285 89.6868 85.805C89.8548 85.325 89.9388 84.77 89.9388 84.14C89.9388 83.504 89.8548 82.949 89.6868 82.475C89.5248 81.995 89.2698 81.623 88.9218 81.359C88.5738 81.089 88.1238 80.954 87.5718 80.954C86.9898 80.954 86.5098 81.098 86.1318 81.386C85.7538 81.668 85.4748 82.052 85.2948 82.538C85.1148 83.018 85.0248 83.552 85.0248 84.14C85.0248 84.734 85.1118 85.274 85.2858 85.76C85.4658 86.24 85.7388 86.621 86.1048 86.903C86.4708 87.185 86.9358 87.326 87.4998 87.326ZM97.0796 89.27C96.3776 89.27 95.7836 89.138 95.2976 88.874C94.8116 88.604 94.4426 88.247 94.1906 87.803C93.9446 87.359 93.8216 86.87 93.8216 86.336C93.8216 85.868 93.8996 85.448 94.0556 85.076C94.2116 84.698 94.4516 84.374 94.7756 84.104C95.0996 83.828 95.5196 83.603 96.0356 83.429C96.4256 83.303 96.8816 83.189 97.4036 83.087C97.9316 82.985 98.5016 82.892 99.1136 82.808C99.7316 82.718 100.377 82.622 101.049 82.52L100.275 82.961C100.281 82.289 100.131 81.794 99.8246 81.476C99.5186 81.158 99.0026 80.999 98.2766 80.999C97.8386 80.999 97.4156 81.101 97.0076 81.305C96.5996 81.509 96.3146 81.86 96.1526 82.358L94.1726 81.737C94.4126 80.915 94.8686 80.255 95.5406 79.757C96.2186 79.259 97.1306 79.01 98.2766 79.01C99.1406 79.01 99.8996 79.151 100.554 79.433C101.214 79.715 101.703 80.177 102.021 80.819C102.195 81.161 102.3 81.512 102.336 81.872C102.372 82.226 102.39 82.613 102.39 83.033V89H100.491V86.894L100.806 87.236C100.368 87.938 99.8546 88.454 99.2666 88.784C98.6846 89.108 97.9556 89.27 97.0796 89.27ZM97.5116 87.542C98.0036 87.542 98.4236 87.455 98.7716 87.281C99.1196 87.107 99.3956 86.894 99.5996 86.642C99.8096 86.39 99.9506 86.153 100.023 85.931C100.137 85.655 100.2 85.34 100.212 84.986C100.23 84.626 100.239 84.335 100.239 84.113L100.905 84.311C100.251 84.413 99.6896 84.503 99.2216 84.581C98.7536 84.659 98.3516 84.734 98.0156 84.806C97.6796 84.872 97.3826 84.947 97.1246 85.031C96.8726 85.121 96.6596 85.226 96.4856 85.346C96.3116 85.466 96.1766 85.604 96.0806 85.76C95.9906 85.916 95.9456 86.099 95.9456 86.309C95.9456 86.549 96.0056 86.762 96.1256 86.948C96.2456 87.128 96.4196 87.272 96.6476 87.38C96.8816 87.488 97.1696 87.542 97.5116 87.542ZM104.733 89V79.28H106.65V81.647L106.416 81.341C106.536 81.017 106.695 80.723 106.893 80.459C107.097 80.189 107.34 79.967 107.622 79.793C107.862 79.631 108.126 79.505 108.414 79.415C108.708 79.319 109.008 79.262 109.314 79.244C109.62 79.22 109.917 79.232 110.205 79.28V81.305C109.917 81.221 109.584 81.194 109.206 81.224C108.834 81.254 108.498 81.359 108.198 81.539C107.898 81.701 107.652 81.908 107.46 82.16C107.274 82.412 107.136 82.7 107.046 83.024C106.956 83.342 106.911 83.687 106.911 84.059V89H104.733ZM115.526 89V76.04H120.881C121.007 76.04 121.169 76.046 121.367 76.058C121.565 76.064 121.748 76.082 121.916 76.112C122.666 76.226 123.284 76.475 123.77 76.859C124.262 77.243 124.625 77.729 124.859 78.317C125.099 78.899 125.219 79.547 125.219 80.261C125.219 81.317 124.952 82.226 124.418 82.988C123.884 83.744 123.065 84.212 121.961 84.392L121.034 84.473H117.695V89H115.526ZM122.969 89L120.413 83.726L122.618 83.24L125.426 89H122.969ZM117.695 82.448H120.791C120.911 82.448 121.046 82.442 121.196 82.43C121.346 82.418 121.484 82.394 121.61 82.358C121.97 82.268 122.252 82.109 122.456 81.881C122.666 81.653 122.813 81.395 122.897 81.107C122.987 80.819 123.032 80.537 123.032 80.261C123.032 79.985 122.987 79.703 122.897 79.415C122.813 79.121 122.666 78.86 122.456 78.632C122.252 78.404 121.97 78.245 121.61 78.155C121.484 78.119 121.346 78.098 121.196 78.092C121.046 78.08 120.911 78.074 120.791 78.074H117.695V82.448ZM130.126 89.27C129.424 89.27 128.83 89.138 128.344 88.874C127.858 88.604 127.489 88.247 127.237 87.803C126.991 87.359 126.868 86.87 126.868 86.336C126.868 85.868 126.946 85.448 127.102 85.076C127.258 84.698 127.498 84.374 127.822 84.104C128.146 83.828 128.566 83.603 129.082 83.429C129.472 83.303 129.928 83.189 130.45 83.087C130.978 82.985 131.548 82.892 132.16 82.808C132.778 82.718 133.423 82.622 134.095 82.52L133.321 82.961C133.327 82.289 133.177 81.794 132.871 81.476C132.565 81.158 132.049 80.999 131.323 80.999C130.885 80.999 130.462 81.101 130.054 81.305C129.646 81.509 129.361 81.86 129.199 82.358L127.219 81.737C127.459 80.915 127.915 80.255 128.587 79.757C129.265 79.259 130.177 79.01 131.323 79.01C132.187 79.01 132.946 79.151 133.6 79.433C134.26 79.715 134.749 80.177 135.067 80.819C135.241 81.161 135.346 81.512 135.382 81.872C135.418 82.226 135.436 82.613 135.436 83.033V89H133.537V86.894L133.852 87.236C133.414 87.938 132.901 88.454 132.313 88.784C131.731 89.108 131.002 89.27 130.126 89.27ZM130.558 87.542C131.05 87.542 131.47 87.455 131.818 87.281C132.166 87.107 132.442 86.894 132.646 86.642C132.856 86.39 132.997 86.153 133.069 85.931C133.183 85.655 133.246 85.34 133.258 84.986C133.276 84.626 133.285 84.335 133.285 84.113L133.951 84.311C133.297 84.413 132.736 84.503 132.268 84.581C131.8 84.659 131.398 84.734 131.062 84.806C130.726 84.872 130.429 84.947 130.171 85.031C129.919 85.121 129.706 85.226 129.532 85.346C129.358 85.466 129.223 85.604 129.127 85.76C129.037 85.916 128.992 86.099 128.992 86.309C128.992 86.549 129.052 86.762 129.172 86.948C129.292 87.128 129.466 87.272 129.694 87.38C129.928 87.488 130.216 87.542 130.558 87.542ZM136.88 89V88.703L142.028 81.179H137.402V79.28H145.403V79.586L140.273 87.101H145.187V89H136.88ZM149.55 89.27C148.848 89.27 148.254 89.138 147.768 88.874C147.282 88.604 146.913 88.247 146.661 87.803C146.415 87.359 146.292 86.87 146.292 86.336C146.292 85.868 146.37 85.448 146.526 85.076C146.682 84.698 146.922 84.374 147.246 84.104C147.57 83.828 147.99 83.603 148.506 83.429C148.896 83.303 149.352 83.189 149.874 83.087C150.402 82.985 150.972 82.892 151.584 82.808C152.202 82.718 152.847 82.622 153.519 82.52L152.745 82.961C152.751 82.289 152.601 81.794 152.295 81.476C151.989 81.158 151.473 80.999 150.747 80.999C150.309 80.999 149.886 81.101 149.478 81.305C149.07 81.509 148.785 81.86 148.623 82.358L146.643 81.737C146.883 80.915 147.339 80.255 148.011 79.757C148.689 79.259 149.601 79.01 150.747 79.01C151.611 79.01 152.37 79.151 153.024 79.433C153.684 79.715 154.173 80.177 154.491 80.819C154.665 81.161 154.77 81.512 154.806 81.872C154.842 82.226 154.86 82.613 154.86 83.033V89H152.961V86.894L153.276 87.236C152.838 87.938 152.325 88.454 151.737 88.784C151.155 89.108 150.426 89.27 149.55 89.27ZM149.982 87.542C150.474 87.542 150.894 87.455 151.242 87.281C151.59 87.107 151.866 86.894 152.07 86.642C152.28 86.39 152.421 86.153 152.493 85.931C152.607 85.655 152.67 85.34 152.682 84.986C152.7 84.626 152.709 84.335 152.709 84.113L153.375 84.311C152.721 84.413 152.16 84.503 151.692 84.581C151.224 84.659 150.822 84.734 150.486 84.806C150.15 84.872 149.853 84.947 149.595 85.031C149.343 85.121 149.13 85.226 148.956 85.346C148.782 85.466 148.647 85.604 148.551 85.76C148.461 85.916 148.416 86.099 148.416 86.309C148.416 86.549 148.476 86.762 148.596 86.948C148.716 87.128 148.89 87.272 149.118 87.38C149.352 87.488 149.64 87.542 149.982 87.542Z" fill="white"/>
</svg>
