<svg width="71" height="68" viewBox="0 0 71 68" fill="none" xmlns="http://www.w3.org/2000/svg">
<path d="M68.9735 32.4889C68.8714 32.5035 68.7839 32.518 68.6964 32.5472H60.2235V19.4222C60.2235 18.6201 59.5673 17.9639 58.7651 17.9639H51.4735C50.6714 17.9639 50.0151 18.6201 50.0151 19.4222V32.5472H39.8069V19.4222C39.8069 18.6201 39.1506 17.9639 38.3485 17.9639H31.0569C30.2548 17.9639 29.5985 18.6201 29.5985 19.4222V32.5472H20.8485V19.4222C20.8485 18.6201 20.1923 17.9639 19.3901 17.9639H12.0985C11.2964 17.9639 10.6401 18.6201 10.6401 19.4222V32.5472H2.16726C2.07976 32.5181 1.97763 32.5035 1.89013 32.4889C1.08813 32.4889 0.431885 33.1451 0.431885 33.9471V61.3346C0.431885 64.82 3.20276 67.5471 6.76101 67.5471H63.8985C67.5006 67.5471 70.4319 64.7617 70.4319 61.3346V33.9471C70.4319 33.1451 69.7756 32.4889 68.9735 32.4889ZM52.9319 20.8805H57.3069V32.5471H52.9319V20.8805ZM32.5153 20.8805H36.8903V32.5471H32.5153V20.8805ZM13.5569 20.8805H17.9319V32.5471H13.5569V20.8805ZM67.5153 61.3346C67.5153 63.1867 65.9256 64.6305 63.8986 64.6305H6.76101C4.79226 64.6305 3.34851 63.2451 3.34851 61.3492V45.8909C5.36101 47.9034 8.11726 49.2305 10.5235 49.2305C13.4839 49.2305 16.3276 47.2617 17.961 44.5492C19.9006 47.743 23.5026 49.9742 26.6235 49.9742C29.7444 49.9742 33.3756 47.7284 35.3006 44.5201C37.2403 47.7285 40.8569 49.9742 43.9923 49.9742C47.1276 49.9742 50.7298 47.7284 52.6694 44.5346C54.3028 47.2617 57.1903 49.2305 60.1798 49.2305C62.6444 49.2305 65.4735 47.9034 67.5151 45.8764L67.5153 61.3346ZM67.5153 40.568C67.0049 43.6014 63.0674 46.5034 60.1799 46.5034C57.1611 46.5034 54.084 43.1346 54.084 39.8096C54.084 39.2555 53.7778 38.7305 53.2674 38.5262C52.2465 38.1178 51.284 38.8471 51.284 39.8096C51.284 43.5721 47.1131 47.2471 43.9924 47.2471C40.8717 47.2471 36.7153 43.5867 36.7153 39.8242C36.7153 39.0951 36.1611 38.468 35.4319 38.4096C34.6006 38.3367 33.9153 38.993 33.9153 39.8096C33.9153 43.5721 29.7444 47.2471 26.6381 47.2471C23.5319 47.2471 19.3756 43.5867 19.361 39.8242C19.361 39.0951 18.8069 38.468 18.0776 38.4096C17.2464 38.3367 16.561 38.993 16.561 39.8096C16.561 43.12 13.5276 46.5034 10.5381 46.5034C7.70901 46.5034 3.85901 43.5721 3.36313 40.4805V35.4639H67.5153V40.568Z" fill="#323232"/>
<path d="M55.1194 15.0471C58.736 15.0471 61.6819 12.3055 61.6819 8.92208C61.6819 5.83045 57.0153 1.63045 56.0673 0.813696C55.5131 0.332446 54.711 0.332446 54.1569 0.813696C53.2235 1.63045 48.5569 5.83045 48.5569 8.92208C48.5569 12.3055 51.5028 15.0471 55.1194 15.0471ZM55.1194 3.90545C57.0153 5.72833 58.7653 7.94508 58.7653 8.9367C58.7653 10.7013 57.1319 12.1451 55.1194 12.1451C53.1069 12.1451 51.4735 10.7013 51.4735 8.9367C51.4735 7.94508 53.2235 5.72833 55.1194 3.90545Z" fill="#3DACEF"/>
<path d="M34.7028 15.0471C38.3194 15.0471 41.2653 12.3055 41.2653 8.92208C41.2653 5.83045 36.5986 1.63045 35.6653 0.813696C35.1111 0.332446 34.309 0.332446 33.7549 0.813696C32.807 1.63032 28.1403 5.83032 28.1403 8.92208C28.1403 12.3055 31.086 15.0471 34.7028 15.0471ZM34.7028 3.90545C36.5986 5.72833 38.3486 7.94508 38.3486 8.9367C38.3486 10.7013 36.7153 12.1451 34.7028 12.1451C32.6903 12.1451 31.0569 10.7013 31.0569 8.9367C31.0569 7.94508 32.8069 5.72833 34.7028 3.90545Z" fill="#3DACEF"/>
<path d="M15.7444 15.0471C19.361 15.0471 22.3069 12.3055 22.3069 8.92208C22.3069 5.83045 17.6403 1.63045 16.7069 0.813696C16.1528 0.332446 15.3506 0.332446 14.7965 0.813696C13.8485 1.63045 9.18188 5.83045 9.18188 8.92208C9.18188 12.3055 12.1278 15.0471 15.7444 15.0471ZM15.7444 3.90545C17.6403 5.72833 19.3903 7.94508 19.3903 8.9367C19.3903 10.7013 17.7569 12.1451 15.7444 12.1451C13.7319 12.1451 12.0985 10.7013 12.0985 8.9367C12.0985 7.94508 13.8485 5.72833 15.7444 3.90545Z" fill="#3DACEF"/>
</svg>
