<svg width="730" height="722" viewBox="0 0 730 722" fill="none" xmlns="http://www.w3.org/2000/svg">
<path d="M76.8623 483.85C34.4124 352.467 106.507 211.547 237.891 169.097L761.252 -5.05447e-05L914.976 475.782L391.616 644.879C260.232 687.329 119.312 615.234 76.8623 483.85V483.85Z" fill="url(#paint0_linear_17_215)"/>
<g clip-path="url(#clip0_17_215)">
<path d="M327.626 193.171C326.99 187.872 323.743 183.322 318.939 180.998C314.136 178.675 308.552 178.954 304.004 181.744L293.043 188.468C291.224 189.583 289.842 191.22 289.047 193.199C288.251 195.179 288.117 197.317 288.658 199.381C289.201 201.445 290.369 203.241 292.034 204.575C293.7 205.909 295.709 206.655 297.842 206.733L297.985 206.738C303.334 206.972 308.383 209.436 311.859 213.514C312.755 214.565 313.84 215.402 315.057 215.991C315.719 216.311 316.421 216.558 317.154 216.727C319.234 217.205 321.366 217.006 323.322 216.15C325.276 215.294 326.87 213.862 327.929 212.009C328.988 210.156 329.413 208.057 329.159 205.938L327.626 193.171Z" fill="black" fill-opacity="0.25"/>
<path d="M299.446 179.523C301.65 179.709 303.786 178.894 305.461 177.229C307.056 175.645 308.043 173.464 308.241 171.087C308.438 168.71 307.825 166.396 306.515 164.569C305.139 162.651 303.168 161.494 300.966 161.311C296.539 160.941 292.595 164.725 292.173 169.749C291.842 173.75 293.845 177.346 296.911 178.829C297.694 179.208 298.546 179.449 299.446 179.523Z" fill="black" fill-opacity="0.25"/>
<path d="M315.26 177.752C319.927 180.009 325.815 177.52 328.387 172.204C330.959 166.886 329.256 160.724 324.589 158.466C319.924 156.209 314.035 158.699 311.463 164.017C308.891 169.333 310.594 175.495 315.26 177.752Z" fill="black" fill-opacity="0.25"/>
<path d="M328.73 187.19L328.73 187.191C329.333 187.776 330.01 188.244 330.739 188.597C334.142 190.243 338.657 189.37 341.764 186.176C343.552 184.337 344.625 181.997 344.784 179.587C344.951 177.065 344.11 174.768 342.416 173.12C340.72 171.472 338.401 170.695 335.884 170.932C333.479 171.159 331.17 172.297 329.383 174.136C325.61 178.015 325.317 183.871 328.73 187.19V187.19Z" fill="black" fill-opacity="0.25"/>
<path d="M347.096 194.686L347.095 194.684C345.027 190.75 339.716 189.453 335.254 191.792C330.795 194.135 328.845 199.241 330.907 203.174C331.659 204.609 332.843 205.694 334.26 206.379C336.73 207.574 339.909 207.556 342.748 206.069C347.208 203.727 349.158 198.62 347.096 194.686V194.686Z" fill="black" fill-opacity="0.25"/>
</g>
<g clip-path="url(#clip1_17_215)">
<path d="M542.626 127.171C541.99 121.872 538.743 117.322 533.939 114.998C529.136 112.675 523.552 112.954 519.004 115.744L508.043 122.468C506.224 123.583 504.842 125.22 504.047 127.199C503.251 129.179 503.117 131.317 503.658 133.381C504.201 135.445 505.369 137.241 507.034 138.575C508.7 139.909 510.709 140.655 512.842 140.733L512.985 140.738C518.334 140.972 523.383 143.436 526.859 147.514C527.755 148.565 528.84 149.402 530.057 149.991C530.719 150.311 531.421 150.558 532.154 150.727C534.234 151.205 536.366 151.006 538.322 150.15C540.276 149.294 541.87 147.862 542.929 146.009C543.988 144.156 544.413 142.057 544.159 139.938L542.626 127.171Z" fill="black" fill-opacity="0.25"/>
<path d="M514.446 113.523C516.65 113.709 518.786 112.894 520.461 111.229C522.056 109.645 523.043 107.464 523.241 105.087C523.438 102.71 522.825 100.396 521.515 98.5695C520.139 96.6513 518.168 95.4937 515.966 95.3114C511.539 94.9409 507.595 98.7249 507.173 103.749C506.842 107.75 508.845 111.346 511.911 112.829C512.694 113.208 513.546 113.449 514.446 113.523Z" fill="black" fill-opacity="0.25"/>
<path d="M530.26 111.752C534.927 114.009 540.815 111.52 543.387 106.204C545.959 100.886 544.256 94.7236 539.589 92.4663C534.924 90.2093 529.035 92.6991 526.463 98.0169C523.891 103.333 525.594 109.495 530.26 111.752Z" fill="black" fill-opacity="0.25"/>
<path d="M543.73 121.19L543.73 121.191C544.333 121.776 545.01 122.244 545.739 122.597C549.142 124.243 553.657 123.37 556.764 120.176C558.552 118.337 559.625 115.997 559.784 113.587C559.951 111.065 559.11 108.768 557.416 107.12C555.72 105.472 553.401 104.695 550.884 104.932C548.479 105.159 546.17 106.297 544.383 108.136C540.61 112.015 540.317 117.871 543.73 121.19V121.19Z" fill="black" fill-opacity="0.25"/>
<path d="M562.096 128.686L562.095 128.684C560.027 124.75 554.716 123.453 550.254 125.792C545.795 128.135 543.845 133.241 545.907 137.174C546.659 138.609 547.843 139.694 549.26 140.379C551.73 141.574 554.909 141.556 557.748 140.069C562.208 137.727 564.158 132.62 562.096 128.686V128.686Z" fill="black" fill-opacity="0.25"/>
</g>
<g clip-path="url(#clip2_17_215)">
<path d="M681.626 229.171C680.99 223.872 677.743 219.322 672.939 216.998C668.136 214.675 662.552 214.954 658.004 217.744L647.043 224.468C645.224 225.583 643.842 227.22 643.047 229.199C642.251 231.179 642.117 233.317 642.658 235.381C643.201 237.445 644.369 239.241 646.034 240.575C647.7 241.909 649.709 242.655 651.842 242.733L651.985 242.738C657.334 242.972 662.383 245.436 665.859 249.514C666.755 250.565 667.84 251.402 669.057 251.991C669.719 252.311 670.421 252.558 671.154 252.727C673.234 253.205 675.366 253.006 677.322 252.15C679.276 251.294 680.87 249.862 681.929 248.009C682.988 246.156 683.413 244.057 683.159 241.938L681.626 229.171Z" fill="black" fill-opacity="0.25"/>
<path d="M653.446 215.523C655.65 215.709 657.786 214.894 659.461 213.229C661.056 211.645 662.043 209.464 662.241 207.087C662.438 204.71 661.825 202.396 660.515 200.569C659.139 198.651 657.168 197.494 654.966 197.311C650.539 196.941 646.595 200.725 646.173 205.749C645.842 209.75 647.845 213.346 650.911 214.829C651.694 215.208 652.546 215.449 653.446 215.523Z" fill="black" fill-opacity="0.25"/>
<path d="M669.26 213.752C673.927 216.009 679.815 213.52 682.387 208.204C684.959 202.886 683.256 196.724 678.589 194.466C673.924 192.209 668.035 194.699 665.463 200.017C662.891 205.333 664.594 211.495 669.26 213.752Z" fill="black" fill-opacity="0.25"/>
<path d="M682.73 223.19L682.73 223.191C683.333 223.776 684.01 224.244 684.739 224.597C688.142 226.243 692.657 225.37 695.764 222.176C697.552 220.337 698.625 217.997 698.784 215.587C698.951 213.065 698.11 210.768 696.416 209.12C694.72 207.472 692.401 206.695 689.884 206.932C687.479 207.159 685.17 208.297 683.383 210.136C679.61 214.015 679.317 219.871 682.73 223.19V223.19Z" fill="black" fill-opacity="0.25"/>
<path d="M701.096 230.686L701.095 230.684C699.027 226.75 693.716 225.453 689.254 227.792C684.795 230.135 682.845 235.241 684.907 239.174C685.659 240.609 686.843 241.694 688.26 242.379C690.73 243.574 693.909 243.556 696.748 242.069C701.208 239.727 703.158 234.62 701.096 230.686V230.686Z" fill="black" fill-opacity="0.25"/>
</g>
<g clip-path="url(#clip3_17_215)">
<path d="M672.626 484.171C671.99 478.872 668.743 474.322 663.939 471.998C659.136 469.675 653.552 469.954 649.004 472.744L638.043 479.468C636.224 480.583 634.842 482.22 634.047 484.199C633.251 486.179 633.117 488.317 633.658 490.381C634.201 492.445 635.369 494.241 637.034 495.575C638.7 496.909 640.709 497.655 642.842 497.733L642.985 497.738C648.334 497.972 653.383 500.436 656.859 504.514C657.755 505.565 658.84 506.402 660.057 506.991C660.719 507.311 661.421 507.558 662.154 507.727C664.234 508.205 666.366 508.006 668.322 507.15C670.276 506.294 671.87 504.862 672.929 503.009C673.988 501.156 674.413 499.057 674.159 496.938L672.626 484.171Z" fill="black" fill-opacity="0.25"/>
<path d="M644.446 470.523C646.65 470.709 648.786 469.894 650.461 468.229C652.056 466.645 653.043 464.464 653.241 462.087C653.438 459.71 652.825 457.396 651.515 455.569C650.139 453.651 648.168 452.494 645.966 452.311C641.539 451.941 637.595 455.725 637.173 460.749C636.842 464.75 638.845 468.346 641.911 469.829C642.694 470.208 643.546 470.449 644.446 470.523Z" fill="black" fill-opacity="0.25"/>
<path d="M660.26 468.752C664.927 471.009 670.815 468.52 673.387 463.204C675.959 457.886 674.256 451.724 669.589 449.466C664.924 447.209 659.035 449.699 656.463 455.017C653.891 460.333 655.594 466.495 660.26 468.752Z" fill="black" fill-opacity="0.25"/>
<path d="M673.73 478.19L673.73 478.191C674.333 478.776 675.01 479.244 675.739 479.597C679.142 481.243 683.657 480.37 686.764 477.176C688.552 475.337 689.625 472.997 689.784 470.587C689.951 468.065 689.11 465.768 687.416 464.12C685.72 462.472 683.401 461.695 680.884 461.932C678.479 462.159 676.17 463.297 674.383 465.136C670.61 469.015 670.317 474.871 673.73 478.19V478.19Z" fill="black" fill-opacity="0.25"/>
<path d="M692.096 485.686L692.095 485.684C690.027 481.75 684.716 480.453 680.254 482.792C675.795 485.135 673.845 490.241 675.907 494.174C676.659 495.609 677.843 496.694 679.26 497.379C681.73 498.574 684.909 498.556 687.748 497.069C692.208 494.727 694.158 489.62 692.096 485.686V485.686Z" fill="black" fill-opacity="0.25"/>
</g>
<g clip-path="url(#clip4_17_215)">
<path d="M584.626 352.171C583.99 346.872 580.743 342.322 575.939 339.998C571.136 337.675 565.552 337.954 561.004 340.744L550.043 347.468C548.224 348.583 546.842 350.22 546.047 352.199C545.251 354.179 545.117 356.317 545.658 358.381C546.201 360.445 547.369 362.241 549.034 363.575C550.7 364.909 552.709 365.655 554.842 365.733L554.985 365.738C560.334 365.972 565.383 368.436 568.859 372.514C569.755 373.565 570.84 374.402 572.057 374.991C572.719 375.311 573.421 375.558 574.154 375.727C576.234 376.205 578.366 376.006 580.322 375.15C582.276 374.294 583.87 372.862 584.929 371.009C585.988 369.156 586.413 367.057 586.159 364.938L584.626 352.171Z" fill="black" fill-opacity="0.25"/>
<path d="M556.446 338.523C558.65 338.709 560.786 337.894 562.461 336.229C564.056 334.645 565.043 332.464 565.241 330.087C565.438 327.71 564.825 325.396 563.515 323.569C562.139 321.651 560.168 320.494 557.966 320.311C553.539 319.941 549.595 323.725 549.173 328.749C548.842 332.75 550.845 336.346 553.911 337.829C554.694 338.208 555.546 338.449 556.446 338.523Z" fill="black" fill-opacity="0.25"/>
<path d="M572.26 336.752C576.927 339.009 582.815 336.52 585.387 331.204C587.959 325.886 586.256 319.724 581.589 317.466C576.924 315.209 571.035 317.699 568.463 323.017C565.891 328.333 567.594 334.495 572.26 336.752Z" fill="black" fill-opacity="0.25"/>
<path d="M585.73 346.19L585.73 346.191C586.333 346.776 587.01 347.244 587.739 347.597C591.142 349.243 595.657 348.37 598.764 345.176C600.552 343.337 601.625 340.997 601.784 338.587C601.951 336.065 601.11 333.768 599.416 332.12C597.72 330.472 595.401 329.695 592.884 329.932C590.479 330.159 588.17 331.297 586.383 333.136C582.61 337.015 582.317 342.871 585.73 346.19V346.19Z" fill="black" fill-opacity="0.25"/>
<path d="M604.096 353.686L604.095 353.684C602.027 349.75 596.716 348.453 592.254 350.792C587.795 353.135 585.845 358.241 587.907 362.174C588.659 363.609 589.843 364.694 591.26 365.379C593.73 366.574 596.909 366.556 599.748 365.069C604.208 362.727 606.158 357.62 604.096 353.686V353.686Z" fill="black" fill-opacity="0.25"/>
</g>
<g clip-path="url(#clip5_17_215)">
<path d="M150.626 367.171C149.99 361.872 146.743 357.322 141.939 354.998C137.136 352.675 131.552 352.954 127.004 355.744L116.043 362.468C114.224 363.583 112.842 365.22 112.047 367.199C111.251 369.179 111.117 371.317 111.658 373.381C112.201 375.445 113.369 377.241 115.034 378.575C116.7 379.909 118.709 380.655 120.842 380.733L120.985 380.738C126.334 380.972 131.383 383.436 134.859 387.514C135.755 388.565 136.84 389.402 138.057 389.991C138.719 390.311 139.421 390.558 140.154 390.727C142.234 391.205 144.366 391.006 146.322 390.15C148.276 389.294 149.87 387.862 150.929 386.009C151.988 384.156 152.413 382.057 152.159 379.938L150.626 367.171Z" fill="black" fill-opacity="0.25"/>
<path d="M122.446 353.523C124.65 353.709 126.786 352.894 128.461 351.229C130.056 349.645 131.043 347.464 131.241 345.087C131.438 342.71 130.825 340.396 129.515 338.569C128.139 336.651 126.168 335.494 123.966 335.311C119.539 334.941 115.595 338.725 115.173 343.749C114.842 347.75 116.845 351.346 119.911 352.829C120.694 353.208 121.546 353.449 122.446 353.523Z" fill="black" fill-opacity="0.25"/>
<path d="M138.26 351.752C142.927 354.009 148.815 351.52 151.387 346.204C153.959 340.886 152.256 334.724 147.589 332.466C142.924 330.209 137.035 332.699 134.463 338.017C131.891 343.333 133.594 349.495 138.26 351.752Z" fill="black" fill-opacity="0.25"/>
<path d="M151.73 361.19L151.73 361.191C152.333 361.776 153.01 362.244 153.739 362.597C157.142 364.243 161.657 363.37 164.764 360.176C166.552 358.337 167.625 355.997 167.784 353.587C167.951 351.065 167.11 348.768 165.416 347.12C163.72 345.472 161.401 344.695 158.884 344.932C156.479 345.159 154.17 346.297 152.383 348.136C148.61 352.015 148.317 357.871 151.73 361.19V361.19Z" fill="black" fill-opacity="0.25"/>
<path d="M170.096 368.686L170.095 368.684C168.027 364.75 162.716 363.453 158.254 365.792C153.795 368.135 151.845 373.241 153.907 377.174C154.659 378.609 155.843 379.694 157.26 380.379C159.73 381.574 162.909 381.556 165.748 380.069C170.208 377.727 172.158 372.62 170.096 368.686V368.686Z" fill="black" fill-opacity="0.25"/>
</g>
<g clip-path="url(#clip6_17_215)">
<path d="M230.626 545.171C229.99 539.872 226.743 535.322 221.939 532.998C217.136 530.675 211.552 530.954 207.004 533.744L196.043 540.468C194.224 541.583 192.842 543.22 192.047 545.199C191.251 547.179 191.117 549.317 191.658 551.381C192.201 553.445 193.369 555.241 195.034 556.575C196.7 557.909 198.709 558.655 200.842 558.733L200.985 558.738C206.334 558.972 211.383 561.436 214.859 565.514C215.755 566.565 216.84 567.402 218.057 567.991C218.719 568.311 219.421 568.558 220.154 568.727C222.234 569.205 224.366 569.006 226.322 568.15C228.276 567.294 229.87 565.862 230.929 564.009C231.988 562.156 232.413 560.057 232.159 557.938L230.626 545.171Z" fill="black" fill-opacity="0.25"/>
<path d="M202.446 531.523C204.65 531.709 206.786 530.894 208.461 529.229C210.056 527.645 211.043 525.464 211.241 523.087C211.438 520.71 210.825 518.396 209.515 516.569C208.139 514.651 206.168 513.494 203.966 513.311C199.539 512.941 195.595 516.725 195.173 521.749C194.842 525.75 196.845 529.346 199.911 530.829C200.694 531.208 201.546 531.449 202.446 531.523Z" fill="black" fill-opacity="0.25"/>
<path d="M218.26 529.752C222.927 532.009 228.815 529.52 231.387 524.204C233.959 518.886 232.256 512.724 227.589 510.466C222.924 508.209 217.035 510.699 214.463 516.017C211.891 521.333 213.594 527.495 218.26 529.752Z" fill="black" fill-opacity="0.25"/>
<path d="M231.73 539.19L231.73 539.191C232.333 539.776 233.01 540.244 233.739 540.597C237.142 542.243 241.657 541.37 244.764 538.176C246.552 536.337 247.625 533.997 247.784 531.587C247.951 529.065 247.11 526.768 245.416 525.12C243.72 523.472 241.401 522.695 238.884 522.932C236.479 523.159 234.17 524.297 232.383 526.136C228.61 530.015 228.317 535.871 231.73 539.19V539.19Z" fill="black" fill-opacity="0.25"/>
<path d="M250.096 546.686L250.095 546.684C248.027 542.75 242.716 541.453 238.254 543.792C233.795 546.135 231.845 551.241 233.907 555.174C234.659 556.609 235.843 557.694 237.26 558.379C239.73 559.574 242.909 559.556 245.748 558.069C250.208 555.727 252.158 550.62 250.096 546.686V546.686Z" fill="black" fill-opacity="0.25"/>
</g>
<g clip-path="url(#clip7_17_215)">
<path d="M757.626 61.1709C756.99 55.8725 753.743 51.3217 748.939 48.9981C744.136 46.6745 738.552 46.9536 734.004 49.7441L723.043 56.4676C721.224 57.5829 719.842 59.2196 719.047 61.1992C718.251 63.1793 718.117 65.3166 718.658 67.3813C719.201 69.4452 720.369 71.2412 722.034 72.5753C723.7 73.9094 725.709 74.6553 727.842 74.7331L727.985 74.7378C733.334 74.9721 738.383 77.4364 741.859 81.5136C742.755 82.5652 743.84 83.402 745.057 83.991C745.719 84.3112 746.421 84.5582 747.154 84.727C749.234 85.2053 751.366 85.0057 753.322 84.1498C755.276 83.2939 756.87 81.8619 757.929 80.0087C758.988 78.1556 759.413 76.0566 759.159 73.9377L757.626 61.1709Z" fill="black" fill-opacity="0.25"/>
<path d="M729.446 47.5234C731.65 47.7085 733.786 46.8939 735.461 45.2293C737.056 43.6454 738.043 41.4642 738.241 39.0866C738.438 36.7102 737.825 34.3959 736.515 32.5695C735.139 30.6513 733.168 29.4937 730.966 29.3114C726.539 28.9409 722.595 32.7249 722.173 37.7492C721.842 41.7504 723.845 45.3461 726.911 46.8291C727.694 47.2078 728.546 47.4487 729.446 47.5234Z" fill="black" fill-opacity="0.25"/>
</g>
<g clip-path="url(#clip8_17_215)">
<path d="M510.835 236.385C510.835 236.385 523.166 190.151 532.011 188.797C540.856 187.443 539.659 236.385 539.659 236.385H510.835Z" fill="#F56132"/>
<path d="M539.659 241.399H510.835C510.027 241.424 509.225 241.267 508.491 240.941C507.757 240.615 507.111 240.128 506.606 239.52C506.102 238.912 505.751 238.198 505.582 237.437C505.412 236.675 505.43 235.885 505.632 235.131C514.373 202.387 522.958 184.986 531.022 183.833C532.125 183.655 533.255 183.721 534.327 184.025C535.4 184.329 536.387 184.863 537.214 185.588C544.654 191.806 545.07 220.188 544.706 236.485C544.68 237.772 544.141 239 543.202 239.915C542.262 240.829 540.994 241.361 539.659 241.399ZM517.599 231.37H534.508C534.93 219.368 533.953 207.359 531.595 195.567C525.573 206.951 520.93 218.964 517.755 231.37H517.599Z" fill="#093F68"/>
<path d="M266.508 338.129C266.508 338.129 233.365 338.129 226.862 313.859C220.358 289.589 243.615 295.857 260.42 281.967C277.226 268.076 279.567 256.894 264.635 251.378C249.702 245.862 182.065 260.354 185.343 298.113C188.621 335.872 215.207 368.667 259.952 359.24L266.508 338.129Z" fill="#FFBC0E"/>
<path d="M244.968 365.859C232.237 366.033 219.795 362.195 209.536 354.928C192.939 343.093 182.221 322.534 180.14 298.514C178.995 285.276 185.343 273.442 198.506 263.413C220.254 247.617 254.697 242.252 266.456 246.464C269.631 247.237 272.526 248.832 274.828 251.077C277.13 253.322 278.751 256.132 279.515 259.201C280.92 266.873 275.665 275.699 263.906 285.527C257.874 290.149 251.014 293.667 243.667 295.907C232.637 299.768 228.943 300.921 231.961 312.405C237.163 332.463 266.3 332.914 266.612 332.914C267.421 332.919 268.218 333.107 268.939 333.461C269.66 333.815 270.285 334.327 270.765 334.955C271.245 335.583 271.566 336.31 271.703 337.079C271.84 337.847 271.789 338.636 271.554 339.383L265.051 360.444C264.782 361.304 264.278 362.08 263.591 362.689C262.905 363.297 262.061 363.717 261.149 363.903C255.848 365.137 250.42 365.793 244.968 365.859V365.859ZM255.894 255.239C237.591 255.909 219.867 261.597 204.801 271.637C194.396 279.159 189.661 287.934 190.546 297.712C192.367 318.823 201.524 336.775 215.727 346.854C221.458 350.844 227.998 353.622 234.921 355.004C241.843 356.387 248.99 356.344 255.894 354.877L259.692 342.642C248.558 341.188 227.382 335.722 221.815 315.112C216.248 294.503 229.463 290.391 239.973 286.68C246.153 284.865 251.936 281.976 257.038 278.156C269.421 267.876 269.525 262.561 269.265 261.157C268.849 258.75 265.519 257.045 262.814 256.142C260.579 255.454 258.237 255.149 255.894 255.239V255.239Z" fill="#093F68"/>
<path d="M493.145 422.623C493.145 422.623 555.58 523.966 546.319 532.942C537.058 541.918 524.415 545.077 515.101 535.199C505.788 525.32 453.083 459.981 454.488 458.577L493.145 422.623Z" fill="#093F68"/>
<path d="M528.421 546.281H527.849C524.671 546.17 521.551 545.427 518.686 544.098C515.821 542.769 513.272 540.883 511.199 538.558C505.997 533.042 489.503 512.884 476.6 496.737C446.528 459.079 446.892 458.778 450.586 455.017L489.399 419.013C489.964 418.492 490.644 418.1 491.388 417.867C492.131 417.634 492.92 417.566 493.695 417.667C494.47 417.768 495.211 418.036 495.864 418.452C496.516 418.867 497.063 419.419 497.464 420.066C497.464 420.066 513.333 445.79 527.693 472.066C555.996 523.916 554.175 532.24 549.857 536.502C544.324 542.353 536.623 545.866 528.421 546.281V546.281ZM460.783 459.53C469.68 472.367 510.523 523.013 518.796 531.789C519.915 533.119 521.315 534.205 522.902 534.974C524.49 535.744 526.229 536.179 528.005 536.252C530.658 536.13 533.259 535.504 535.661 534.412C538.063 533.319 540.217 531.78 542.001 529.883C542.989 520.807 517.599 472.818 491.897 430.646L460.783 459.53Z" fill="#093F68"/>
<path d="M315.103 406.176C315.103 407.48 355.217 515.993 351.523 535.349C349.182 547.534 324.26 548.637 313.178 526.824C299.078 499.144 274.572 437.165 274.572 437.165L315.103 406.176Z" fill="#093F68"/>
<path d="M338.204 548.988C331.787 548.683 325.59 546.639 320.326 543.091C315.061 539.543 310.942 534.634 308.443 528.93C294.395 501.351 270.67 441.377 269.682 438.67C269.286 437.675 269.229 436.585 269.518 435.557C269.808 434.529 270.431 433.617 271.294 432.953L311.877 401.913C312.649 401.33 313.576 400.968 314.552 400.871C315.528 400.773 316.512 400.943 317.392 401.362C318.102 401.695 318.724 402.18 319.211 402.779C319.698 403.379 320.036 404.077 320.202 404.822C320.514 405.775 321.606 408.984 323.271 413.748C340.337 462.639 359.691 520.707 356.57 535.951C355.793 539.329 353.905 542.375 351.186 544.634C348.466 546.893 345.062 548.245 341.481 548.487C340.403 548.731 339.307 548.899 338.204 548.988ZM280.972 438.67C286.175 452.008 306.05 501.05 318.016 524.468C323.635 535.6 333.313 539.511 340.285 538.709C341.585 538.709 345.904 537.706 346.58 534.246C348.453 524.518 337.371 485.104 313.594 417.057L312.709 414.399L280.972 438.67Z" fill="#093F68"/>
<path d="M436.694 321.481L490.336 229.816C490.336 229.816 490.804 197.422 497.828 188.898C504.852 180.373 509.482 187.995 510.887 191.154C512.292 194.313 520.669 224.4 520.669 224.4C520.669 224.4 618.587 253.183 620.46 259.502C622.333 265.82 602.718 298.615 594.445 301.323C586.173 304.03 538.931 305.384 538.931 305.384C538.931 305.384 515.622 394.793 509.118 421.319C502.615 447.846 483.832 445.389 483.832 445.389C483.832 445.389 481.127 543.773 469.472 544.676C457.818 545.579 443.458 545.127 440.076 534.346C436.694 523.565 432.063 457.725 432.063 457.725C432.063 457.725 345.748 453.262 316.872 428.992C303.999 436.803 291.692 445.448 280.035 454.866C280.035 454.866 260.837 521.91 254.021 530.736C242.783 544.977 219.474 541.316 219.838 519.002C219.838 509.625 230.244 437.817 240.649 370.974C245.072 342.542 261.461 326.947 272.803 324.239C284.145 321.531 436.694 321.481 436.694 321.481Z" fill="#FFBC0E"/>
<path d="M462.136 549.991C452.459 549.991 438.723 547.986 434.977 535.7C432.064 525.972 428.318 478.134 427.173 462.388C409.223 461.134 344.759 455.268 316.508 435.109C305.416 441.989 294.765 449.508 284.614 457.624C280.556 471.765 264.947 524.919 258.027 533.744C254.925 537.953 250.524 541.11 245.451 542.767C240.379 544.423 234.893 544.495 229.775 542.971C219.994 539.712 214.167 530.686 214.479 518.851C214.479 509.173 224.521 438.319 235.291 370.172C239.817 341.439 256.83 322.835 271.346 319.325C282.273 316.717 408.182 316.517 433.729 316.466L485.237 228.462C485.237 220.589 486.538 194.614 493.77 185.789C494.977 183.913 496.687 182.386 498.721 181.371C500.754 180.356 503.034 179.89 505.32 180.022C507.693 180.614 509.881 181.755 511.694 183.345C513.507 184.935 514.891 186.927 515.726 189.148C516.975 192.057 522.438 211.312 524.987 220.439C622.906 249.272 624.674 255.239 625.507 258.098C628.264 267.274 606.464 302.677 596.059 306.036C588.358 308.493 555.892 309.797 542.989 310.198C538.515 327.298 519.836 399.306 514.113 422.423C509.274 442.029 497.516 448.799 488.879 450.153C485.81 548.387 474.207 549.289 469.837 549.64C467.964 549.741 465.258 549.991 462.136 549.991ZM316.872 423.927C318.112 423.927 319.311 424.354 320.254 425.13C347.517 447.997 431.491 452.66 432.324 452.66C433.588 452.73 434.783 453.243 435.683 454.102C436.583 454.96 437.128 456.106 437.215 457.323C438.515 475.476 442.417 524.468 444.967 532.892C446.059 536.402 449.597 540.915 467.807 539.712C473.01 532.34 477.433 485.605 478.525 445.188C478.554 444.486 478.735 443.797 479.058 443.166C479.381 442.535 479.837 441.977 480.398 441.528C480.953 441.072 481.601 440.734 482.3 440.536C483 440.337 483.734 440.282 484.457 440.374C485.862 440.374 498.765 441.227 503.915 420.316C510.419 394.091 533.572 304.983 533.78 304.281C534.062 303.228 534.691 302.291 535.573 301.613C536.456 300.935 537.543 300.551 538.671 300.52C556.621 299.969 587.11 298.514 592.729 296.709C598.348 294.904 613.54 269.832 615.257 261.608C606.672 256.593 560.887 241.55 519.16 229.214C518.308 228.969 517.536 228.518 516.916 227.903C516.297 227.289 515.851 226.532 515.622 225.704C511.616 211.212 506.933 195.065 506.101 193.11C505.635 191.883 504.846 190.794 503.811 189.951C503.811 189.951 503.135 190.502 501.886 192.007C497.828 197.021 495.747 217.079 495.539 229.866C495.55 230.713 495.315 231.547 494.862 232.273L441.221 323.938C440.769 324.713 440.112 325.358 439.316 325.807C438.521 326.256 437.616 326.494 436.694 326.495C377.798 326.495 281.492 327.197 273.792 329.053C265.155 331.159 249.755 344.598 245.488 371.676C235.082 436.864 225.041 509.976 224.677 519.002C224.677 526.423 227.59 531.688 232.949 533.494C236 534.312 239.239 534.191 242.215 533.148C245.191 532.105 247.754 530.192 249.546 527.677C254.177 521.76 267.496 479.036 274.832 453.462C275.106 452.508 275.668 451.653 276.445 451.005C288.29 441.411 300.806 432.614 313.906 424.679C314.794 424.147 315.827 423.885 316.872 423.927Z" fill="#093F68"/>
<path d="M532.011 369.369L448.14 290.341L427.537 317.469L516.142 408.683L532.011 369.369Z" fill="#F56132"/>
<path d="M516.142 413.697C515.433 413.702 514.73 413.566 514.077 413.298C513.423 413.031 512.834 412.638 512.344 412.143L423.895 320.879C423.077 320.023 422.594 318.92 422.527 317.758C422.461 316.596 422.815 315.448 423.531 314.511L444.082 287.382C444.524 286.795 445.092 286.308 445.747 285.953C446.403 285.598 447.131 285.384 447.88 285.326C448.626 285.274 449.374 285.376 450.074 285.627C450.774 285.878 451.41 286.272 451.939 286.781L535.809 365.759C536.538 366.449 537.041 367.33 537.253 368.293C537.466 369.256 537.38 370.258 537.006 371.174L521.397 410.488C521.075 411.284 520.548 411.987 519.865 412.531C519.182 413.075 518.366 413.442 517.495 413.597C517.058 413.729 516.595 413.763 516.142 413.697ZM434.509 317.319L514.529 399.707L526.132 370.874L449.025 298.214L434.509 317.319Z" fill="#093F68"/>
<path d="M539.659 264.968C543.854 264.968 547.255 261.69 547.255 257.646C547.255 253.603 543.854 250.325 539.659 250.325C535.464 250.325 532.063 253.603 532.063 257.646C532.063 261.69 535.464 264.968 539.659 264.968Z" fill="#093F68"/>
<path d="M638.918 553H130.604C129.913 553 129.251 552.472 128.763 551.531C128.274 550.591 128 549.315 128 547.985C128 546.656 128.274 545.38 128.763 544.44C129.251 543.499 129.913 542.971 130.604 542.971H638.918C639.609 542.971 640.271 543.499 640.76 544.44C641.248 545.38 641.522 546.656 641.522 547.985C641.522 549.315 641.248 550.591 640.76 551.531C640.271 552.472 639.609 553 638.918 553Z" fill="#093F68"/>
<path d="M623.998 271.386C631.067 271.386 636.797 265.863 636.797 259.05C636.797 252.238 631.067 246.715 623.998 246.715C616.929 246.715 611.199 252.238 611.199 259.05C611.199 265.863 616.929 271.386 623.998 271.386Z" fill="#093F68"/>
<path d="M623.998 276.4C620.423 276.41 616.925 275.397 613.948 273.489C610.971 271.581 608.649 268.864 607.276 265.682C605.903 262.501 605.541 258.998 606.236 255.618C606.931 252.238 608.652 249.133 611.18 246.696C613.708 244.26 616.93 242.602 620.437 241.932C623.943 241.262 627.578 241.611 630.879 242.934C634.18 244.257 636.999 246.495 638.979 249.364C640.959 252.234 642.01 255.605 642 259.05C642 263.652 640.103 268.065 636.727 271.319C633.351 274.573 628.772 276.4 623.998 276.4ZM623.998 251.679C622.483 251.669 620.999 252.093 619.735 252.897C618.47 253.701 617.482 254.849 616.895 256.195C616.308 257.541 616.149 259.024 616.438 260.457C616.727 261.891 617.452 263.209 618.519 264.245C619.587 265.281 620.949 265.988 622.434 266.276C623.919 266.565 625.46 266.422 626.861 265.865C628.261 265.309 629.459 264.364 630.301 263.151C631.144 261.938 631.594 260.51 631.594 259.05C631.601 258.085 631.41 257.127 631.031 256.233C630.652 255.339 630.094 254.526 629.388 253.841C628.682 253.156 627.842 252.612 626.917 252.241C625.992 251.87 625 251.679 623.998 251.679V251.679Z" fill="#093F68"/>
<g clip-path="url(#clip9_17_215)">
<path d="M423.54 236.978L438.671 218.623C441.218 220.299 443.979 220.992 446.731 220.632C449.693 220.244 452.494 218.612 454.617 216.036C458.91 210.828 458.178 203.109 452.985 198.829C450.478 196.761 447.322 195.816 444.113 196.125C443.803 192.915 442.27 189.995 439.757 187.924C434.553 183.634 426.826 184.381 422.534 189.588C420.453 192.112 419.47 195.283 419.766 198.517C420.019 201.282 421.183 203.819 423.081 205.795L407.973 224.124C402.846 220.827 395.918 221.826 391.935 226.657C387.642 231.865 388.393 239.599 393.608 243.898C396.126 245.974 399.288 246.924 402.499 246.617C402.81 249.828 404.347 252.751 406.865 254.827C409.387 256.905 412.562 257.87 415.804 257.542C419.035 257.216 421.96 255.646 424.04 253.122C426.164 250.546 427.232 247.486 427.049 244.506C426.878 241.736 425.672 239.158 423.54 236.978ZM408.788 252.494C406.537 250.638 405.329 247.875 405.475 244.912C405.499 244.435 405.296 243.975 404.927 243.672C404.559 243.368 404.068 243.256 403.605 243.37C400.725 244.079 397.781 243.421 395.53 241.565C391.602 238.327 391.035 232.502 394.268 228.58C397.469 224.696 403.196 224.099 407.101 227.214C407.313 227.448 407.596 227.613 407.915 227.679C408.464 227.793 409.031 227.593 409.387 227.16L426.333 206.603C426.683 206.179 426.775 205.599 426.573 205.088C426.45 204.775 426.228 204.517 425.95 204.349C422.159 201.123 421.664 195.396 424.866 191.511C428.099 187.59 433.917 187.027 437.835 190.257C440.08 192.107 441.283 194.867 441.137 197.83C441.113 198.307 441.317 198.767 441.685 199.071C442.053 199.374 442.544 199.486 443.007 199.372C445.888 198.663 448.824 199.315 451.063 201.161C454.969 204.381 455.518 210.192 452.285 214.113C448.77 218.378 443.696 218.877 439.358 215.386C438.713 214.867 437.77 214.963 437.244 215.602L420.302 236.154C419.776 236.793 419.861 237.736 420.493 238.27C424.746 241.86 425.223 246.935 421.708 251.2C418.475 255.121 412.679 255.702 408.788 252.494Z" fill="black" fill-opacity="0.25"/>
</g>
<g clip-path="url(#clip10_17_215)">
<path d="M167.54 457.978L182.671 439.623C185.218 441.299 187.979 441.992 190.731 441.632C193.693 441.244 196.494 439.612 198.617 437.036C202.91 431.828 202.178 424.109 196.985 419.829C194.478 417.761 191.322 416.816 188.113 417.125C187.803 413.915 186.27 410.995 183.757 408.924C178.553 404.634 170.826 405.381 166.534 410.588C164.453 413.112 163.47 416.283 163.766 419.517C164.019 422.282 165.183 424.819 167.081 426.795L151.973 445.124C146.846 441.827 139.918 442.826 135.935 447.657C131.642 452.865 132.393 460.599 137.608 464.898C140.126 466.974 143.288 467.924 146.499 467.617C146.81 470.828 148.347 473.751 150.865 475.827C153.387 477.905 156.562 478.87 159.804 478.542C163.035 478.216 165.96 476.646 168.04 474.122C170.164 471.546 171.232 468.486 171.049 465.506C170.878 462.736 169.672 460.158 167.54 457.978ZM152.788 473.494C150.537 471.638 149.329 468.875 149.475 465.912C149.499 465.435 149.296 464.975 148.927 464.672C148.559 464.368 148.068 464.256 147.605 464.37C144.725 465.079 141.781 464.421 139.53 462.565C135.602 459.327 135.035 453.502 138.268 449.58C141.469 445.696 147.196 445.099 151.101 448.214C151.313 448.448 151.596 448.613 151.915 448.679C152.464 448.793 153.031 448.593 153.387 448.16L170.333 427.603C170.683 427.179 170.775 426.599 170.573 426.088C170.45 425.775 170.228 425.517 169.95 425.349C166.159 422.123 165.664 416.396 168.866 412.511C172.099 408.59 177.917 408.027 181.835 411.257C184.08 413.107 185.283 415.867 185.137 418.83C185.113 419.307 185.317 419.767 185.685 420.071C186.053 420.374 186.544 420.486 187.007 420.372C189.888 419.663 192.824 420.315 195.063 422.161C198.969 425.381 199.518 431.192 196.285 435.113C192.77 439.378 187.696 439.877 183.358 436.386C182.713 435.867 181.77 435.963 181.244 436.602L164.302 457.154C163.776 457.793 163.861 458.736 164.493 459.27C168.746 462.86 169.223 467.935 165.708 472.2C162.475 476.121 156.679 476.702 152.788 473.494Z" fill="black" fill-opacity="0.25"/>
</g>
</g>
<g clip-path="url(#clip11_17_215)">
<path d="M642.591 127.663L657.721 109.308C660.268 110.984 663.029 111.677 665.782 111.317C668.744 110.929 671.544 109.297 673.668 106.721C677.961 101.513 677.228 93.7937 672.036 89.5132C669.528 87.4461 666.373 86.5005 663.163 86.8093C662.854 83.5994 661.32 80.6799 658.808 78.6089C653.603 74.3188 645.877 75.0654 641.584 80.2729C639.503 82.7971 638.52 85.9679 638.816 89.2014C639.069 91.9663 640.233 94.5039 642.132 96.4801L627.023 114.808C621.896 111.512 614.968 112.511 610.986 117.342C606.693 122.549 607.443 130.284 612.658 134.582C615.176 136.658 618.338 137.609 621.55 137.302C621.861 140.513 623.397 143.435 625.916 145.511C628.438 147.59 631.612 148.554 634.855 148.227C638.085 147.9 641.01 146.33 643.09 143.807C645.214 141.231 646.282 138.171 646.099 135.191C645.929 132.421 644.722 129.843 642.591 127.663ZM627.838 143.179C625.587 141.323 624.38 138.56 624.526 135.597C624.549 135.12 624.346 134.66 623.978 134.356C623.609 134.053 623.119 133.941 622.655 134.055C619.775 134.764 616.832 134.106 614.581 132.25C610.652 129.011 610.086 123.186 613.318 119.265C616.52 115.381 622.247 114.783 626.152 117.899C626.363 118.132 626.646 118.298 626.966 118.364C627.515 118.477 628.081 118.277 628.437 117.845L645.384 97.2879C645.733 96.8639 645.825 96.2836 645.624 95.7724C645.5 95.4592 645.278 95.2022 645 95.0337C641.209 91.808 640.714 86.0806 643.917 82.1958C647.149 78.2742 652.967 77.7116 656.885 80.9415C659.13 82.7918 660.334 85.5521 660.187 88.5146C660.164 88.9915 660.367 89.4515 660.735 89.7553C661.104 90.059 661.594 90.1708 662.058 90.0567C664.938 89.3477 667.874 90 670.113 91.8457C674.02 95.0661 674.568 100.876 671.335 104.798C667.82 109.062 662.746 109.562 658.408 106.07C657.763 105.552 656.821 105.648 656.294 106.287L639.353 126.838C638.826 127.477 638.911 128.421 639.544 128.955C643.797 132.545 644.273 137.62 640.758 141.884C637.525 145.806 631.73 146.387 627.838 143.179Z" fill="black" fill-opacity="0.25"/>
</g>
<g clip-path="url(#clip12_17_215)">
<path d="M328.54 622.978L343.671 604.623C346.218 606.299 348.979 606.992 351.731 606.632C354.693 606.244 357.494 604.612 359.617 602.036C363.91 596.828 363.178 589.109 357.985 584.829C355.478 582.761 352.322 581.816 349.113 582.125C348.803 578.915 347.27 575.995 344.757 573.924C339.553 569.634 331.826 570.381 327.534 575.588C325.453 578.112 324.47 581.283 324.766 584.517C325.019 587.282 326.183 589.819 328.081 591.795L312.973 610.124C307.846 606.827 300.918 607.826 296.935 612.657C292.642 617.865 293.393 625.599 298.608 629.898C301.126 631.974 304.288 632.924 307.499 632.617C307.81 635.828 309.347 638.751 311.865 640.827C314.387 642.905 317.562 643.87 320.804 643.542C324.035 643.216 326.96 641.646 329.04 639.122C331.164 636.546 332.232 633.486 332.049 630.506C331.878 627.736 330.672 625.158 328.54 622.978ZM313.788 638.494C311.537 636.638 310.329 633.875 310.475 630.912C310.499 630.435 310.296 629.975 309.927 629.672C309.559 629.368 309.068 629.256 308.605 629.37C305.725 630.079 302.781 629.421 300.53 627.565C296.602 624.327 296.035 618.502 299.268 614.58C302.469 610.696 308.196 610.099 312.101 613.214C312.313 613.448 312.596 613.613 312.915 613.679C313.464 613.793 314.031 613.593 314.387 613.16L331.333 592.603C331.683 592.179 331.775 591.599 331.573 591.088C331.45 590.775 331.228 590.517 330.95 590.349C327.159 587.123 326.664 581.396 329.866 577.511C333.099 573.59 338.917 573.027 342.835 576.257C345.08 578.107 346.283 580.867 346.137 583.83C346.113 584.307 346.317 584.767 346.685 585.071C347.053 585.374 347.544 585.486 348.007 585.372C350.888 584.663 353.824 585.315 356.063 587.161C359.969 590.381 360.518 596.192 357.285 600.113C353.77 604.378 348.696 604.877 344.358 601.386C343.713 600.867 342.77 600.963 342.244 601.602L325.302 622.154C324.776 622.793 324.861 623.736 325.493 624.27C329.746 627.86 330.223 632.935 326.708 637.2C323.475 641.121 317.679 641.702 313.788 638.494Z" fill="black" fill-opacity="0.25"/>
</g>
<g clip-path="url(#clip13_17_215)">
<path d="M679.54 379.978L694.671 361.623C697.218 363.299 699.979 363.992 702.731 363.632C705.693 363.244 708.494 361.612 710.617 359.036C714.91 353.828 714.178 346.109 708.985 341.829C706.478 339.761 703.322 338.816 700.113 339.125C699.803 335.915 698.27 332.995 695.757 330.924C690.553 326.634 682.826 327.381 678.534 332.588C676.453 335.112 675.47 338.283 675.766 341.517C676.019 344.282 677.183 346.819 679.081 348.795L663.973 367.124C658.846 363.827 651.918 364.826 647.935 369.657C643.642 374.865 644.393 382.599 649.608 386.898C652.126 388.974 655.288 389.924 658.499 389.617C658.81 392.828 660.347 395.751 662.865 397.827C665.387 399.905 668.562 400.87 671.804 400.542C675.035 400.216 677.96 398.646 680.04 396.122C682.164 393.546 683.232 390.486 683.049 387.506C682.878 384.736 681.672 382.158 679.54 379.978ZM664.788 395.494C662.537 393.638 661.329 390.875 661.475 387.912C661.499 387.435 661.296 386.975 660.927 386.672C660.559 386.368 660.068 386.256 659.605 386.37C656.725 387.079 653.781 386.421 651.53 384.565C647.602 381.327 647.035 375.502 650.268 371.58C653.469 367.696 659.196 367.099 663.101 370.214C663.313 370.448 663.596 370.613 663.915 370.679C664.464 370.793 665.031 370.593 665.387 370.16L682.333 349.603C682.683 349.179 682.775 348.599 682.573 348.088C682.45 347.775 682.228 347.517 681.95 347.349C678.159 344.123 677.664 338.396 680.866 334.511C684.099 330.59 689.917 330.027 693.835 333.257C696.08 335.107 697.283 337.867 697.137 340.83C697.113 341.307 697.317 341.767 697.685 342.071C698.053 342.374 698.544 342.486 699.007 342.372C701.888 341.663 704.824 342.315 707.063 344.161C710.969 347.381 711.518 353.192 708.285 357.113C704.77 361.378 699.696 361.877 695.358 358.386C694.713 357.867 693.77 357.963 693.244 358.602L676.302 379.154C675.776 379.793 675.861 380.736 676.493 381.27C680.746 384.86 681.223 389.935 677.708 394.2C674.475 398.121 668.679 398.702 664.788 395.494Z" fill="black" fill-opacity="0.25"/>
</g>
<defs>
<linearGradient id="paint0_linear_17_215" x1="380.626" y1="122.98" x2="534.35" y2="598.762" gradientUnits="userSpaceOnUse">
<stop stop-color="#3CB7DE"/>
<stop offset="1" stop-color="#3FA3FF"/>
</linearGradient>
<clipPath id="clip0_17_215">
<rect width="64" height="64" fill="white" transform="translate(303.87 144) rotate(25.8147)"/>
</clipPath>
<clipPath id="clip1_17_215">
<rect width="64" height="64" fill="white" transform="translate(518.87 78) rotate(25.8147)"/>
</clipPath>
<clipPath id="clip2_17_215">
<rect width="64" height="64" fill="white" transform="translate(657.87 180) rotate(25.8147)"/>
</clipPath>
<clipPath id="clip3_17_215">
<rect width="64" height="64" fill="white" transform="translate(648.87 435) rotate(25.8147)"/>
</clipPath>
<clipPath id="clip4_17_215">
<rect width="64" height="64" fill="white" transform="translate(560.87 303) rotate(25.8147)"/>
</clipPath>
<clipPath id="clip5_17_215">
<rect width="64" height="64" fill="white" transform="translate(126.87 318) rotate(25.8147)"/>
</clipPath>
<clipPath id="clip6_17_215">
<rect width="64" height="64" fill="white" transform="translate(206.87 496) rotate(25.8147)"/>
</clipPath>
<clipPath id="clip7_17_215">
<rect width="64" height="64" fill="white" transform="translate(733.87 12) rotate(25.8147)"/>
</clipPath>
<clipPath id="clip8_17_215">
<rect width="514" height="373" fill="white" transform="translate(128 180)"/>
</clipPath>
<clipPath id="clip9_17_215">
<rect width="42" height="72.5454" fill="white" transform="translate(430.145 180) rotate(39.5)"/>
</clipPath>
<clipPath id="clip10_17_215">
<rect width="42" height="72.5454" fill="white" transform="translate(174.145 401) rotate(39.5)"/>
</clipPath>
<clipPath id="clip11_17_215">
<rect width="42" height="72.5454" fill="white" transform="translate(649.195 70.6847) rotate(39.5)"/>
</clipPath>
<clipPath id="clip12_17_215">
<rect width="42" height="72.5454" fill="white" transform="translate(335.145 566) rotate(39.5)"/>
</clipPath>
<clipPath id="clip13_17_215">
<rect width="42" height="72.5454" fill="white" transform="translate(686.145 323) rotate(39.5)"/>
</clipPath>
</defs>
</svg>
