<svg width="104" height="75" viewBox="0 0 104 75" fill="none" xmlns="http://www.w3.org/2000/svg">
<g clip-path="url(#clip0_49_1288)">
<path d="M83.2929 12.3458H77.4608C77.2973 12.3508 77.1349 12.3192 76.9864 12.2536C76.8379 12.188 76.7073 12.0902 76.6052 11.9679C76.503 11.8456 76.432 11.7021 76.3978 11.5489C76.3636 11.3958 76.3671 11.2371 76.4081 11.0854C78.1767 4.50138 79.9136 1.00267 81.5453 0.770767C81.7684 0.734982 81.9971 0.748148 82.2141 0.809276C82.4311 0.870404 82.6308 0.977891 82.7981 1.12365C84.3035 2.37392 84.3877 8.08077 84.314 11.3577C84.3087 11.6164 84.1998 11.8633 84.0097 12.0472C83.8196 12.2312 83.563 12.3381 83.2929 12.3458ZM78.8293 10.3292H82.2507C82.3361 7.91596 82.1383 5.50114 81.6612 3.13013C80.4428 5.41913 79.5032 7.83468 78.8609 10.3292H78.8293Z" fill="#323232"/>
<path d="M28.0249 31.7953C28.0249 31.7953 21.319 31.7953 20.0031 26.9153C18.6872 22.0352 23.3929 23.2955 26.7932 20.5026C30.1935 17.7097 30.6672 15.4613 27.6459 14.3521C24.6246 13.243 10.9392 16.157 11.6024 23.7493C12.2656 31.3416 17.645 37.9357 26.6985 36.0402L28.0249 31.7953Z" fill="white"/>
<path d="M23.6666 37.3712C21.0907 37.4062 18.5734 36.6344 16.4976 35.1731C13.1394 32.7936 10.9708 28.6597 10.5497 23.83C10.3181 21.1682 11.6024 18.7886 14.2658 16.7721C18.6662 13.596 25.6352 12.5172 28.0144 13.3641C28.6568 13.5195 29.2426 13.8403 29.7084 14.2917C30.1741 14.7431 30.5021 15.308 30.6567 15.9251C30.9409 17.4678 29.8777 19.2424 27.4985 21.2186C26.278 22.1479 24.8901 22.8553 23.4034 23.3057C21.1717 24.0821 20.4242 24.314 21.0348 26.623C22.0875 30.6561 27.9828 30.7468 28.0459 30.7468C28.2097 30.7479 28.3709 30.7856 28.5168 30.8568C28.6626 30.928 28.7891 31.0309 28.8862 31.1571C28.9833 31.2834 29.0483 31.4296 29.0761 31.5842C29.1038 31.7388 29.0935 31.8974 29.046 32.0475L27.7301 36.2822C27.6757 36.4553 27.5737 36.6113 27.4348 36.7337C27.2959 36.856 27.1252 36.9404 26.9406 36.9779C25.8681 37.226 24.7699 37.3579 23.6666 37.3712ZM25.8773 15.1286C22.1741 15.2632 18.5878 16.407 15.5396 18.4257C13.4341 19.9381 12.4762 21.7026 12.6551 23.6687C13.0236 27.9135 14.8764 31.5232 17.7503 33.5498C18.9097 34.3521 20.2331 34.9105 21.6337 35.1886C23.0343 35.4666 24.4805 35.4579 25.8773 35.163L26.6458 32.7029C24.393 32.4105 20.1084 31.3114 18.982 27.1674C17.8556 23.0234 20.5295 22.1966 22.656 21.4505C23.9064 21.0854 25.0766 20.5045 26.1089 19.7364C28.6144 17.6695 28.6355 16.6007 28.5828 16.3184C28.4986 15.8344 27.8249 15.4916 27.2775 15.3101C26.8254 15.1718 26.3515 15.1103 25.8773 15.1286Z" fill="#323232"/>
<path d="M81.019 73.649H80.9032C80.2602 73.6267 79.629 73.4773 79.0493 73.2101C78.4695 72.9429 77.9538 72.5636 77.5345 72.0962C76.4818 70.9871 73.1446 66.9339 70.5339 63.6872C64.4491 56.1151 64.5228 56.0546 65.2703 55.2984L73.1236 48.0589C73.2379 47.9542 73.3754 47.8754 73.5259 47.8286C73.6764 47.7817 73.8359 47.768 73.9927 47.7883C74.1495 47.8086 74.2995 47.8626 74.4315 47.9461C74.5635 48.0296 74.6742 48.1406 74.7553 48.2707C74.7553 48.2707 77.9661 53.4431 80.8716 58.7265C86.5984 69.1521 86.23 70.8258 85.3562 71.6829C84.2368 72.8592 82.6785 73.5656 81.019 73.649ZM67.3336 56.2058C69.1337 58.787 77.3977 68.9706 79.0715 70.7351C79.2979 71.0026 79.5812 71.2209 79.9024 71.3756C80.2236 71.5303 80.5755 71.6179 80.9348 71.6324C81.4716 71.6079 81.998 71.4822 82.4839 71.2624C82.9699 71.0427 83.4058 70.7333 83.7666 70.3519C83.9666 68.5269 78.8293 58.8778 73.6289 50.3981L67.3336 56.2058Z" fill="#323232"/>
<path d="M42.5314 74.1934C41.2332 74.1321 39.9793 73.7211 38.9141 73.0076C37.8489 72.2942 37.0155 71.3072 36.5098 70.1603C33.6675 64.6148 28.8671 52.5558 28.6671 52.0114C28.5869 51.8114 28.5754 51.5922 28.6341 51.3856C28.6927 51.1789 28.8186 50.9955 28.9934 50.8619L37.2046 44.6207C37.3608 44.5033 37.5484 44.4307 37.7459 44.411C37.9433 44.3914 38.1425 44.4256 38.3205 44.5098C38.4642 44.5768 38.5901 44.6743 38.6886 44.7949C38.787 44.9154 38.8556 45.0558 38.889 45.2055C38.9522 45.3971 39.1732 46.0424 39.5101 47.0002C42.963 56.8309 46.8792 68.5068 46.2475 71.5719C46.0904 72.2512 45.7083 72.8636 45.1581 73.3178C44.608 73.7721 43.9192 74.0439 43.1946 74.0926C42.9764 74.1417 42.7548 74.1754 42.5314 74.1934ZM30.9515 52.0114C32.0042 54.6934 36.0256 64.5543 38.4469 69.263C39.5838 71.5014 41.5419 72.2878 42.9525 72.1265C43.2157 72.1265 44.0895 71.9248 44.2263 71.2291C44.6053 69.2731 42.363 61.348 37.552 47.6657L37.3731 47.1313L30.9515 52.0114Z" fill="#323232"/>
<path d="M62.4596 28.4479L73.3132 10.0166C73.3132 10.0166 73.4079 3.50311 74.8291 1.78904C76.2503 0.0749695 77.1872 1.60755 77.4714 2.24276C77.7556 2.87797 79.4505 8.92764 79.4505 8.92764C79.4505 8.92764 99.2628 14.7151 99.6418 15.9856C100.021 17.256 96.052 23.8501 94.3781 24.3946C92.7043 24.9391 83.1456 25.2113 83.1456 25.2113C83.1456 25.2113 78.4294 43.1889 77.1135 48.5226C75.7976 53.8564 71.9972 53.3624 71.9972 53.3624C71.9972 53.3624 71.4498 73.1447 69.0917 73.3262C66.7336 73.5077 63.8281 73.417 63.1438 71.2492C62.4596 69.0814 61.5226 55.8427 61.5226 55.8427C61.5226 55.8427 44.0579 54.9454 38.2153 50.0653C35.6108 51.636 33.1206 53.3742 30.762 55.268C30.762 55.268 26.8775 68.7487 25.4984 70.5232C23.2245 73.3867 18.5083 72.6507 18.582 68.1639C18.582 66.2784 20.6875 51.8399 22.7929 38.3995C23.6877 32.6826 27.0038 29.5469 29.2988 29.0024C31.5937 28.4579 62.4596 28.4479 62.4596 28.4479Z" fill="white"/>
<path d="M67.6073 74.395C65.6492 74.395 62.87 73.9917 62.1121 71.5214C61.5226 69.5654 60.7646 59.9464 60.533 56.7804C56.9011 56.5284 43.8579 55.3487 38.1416 51.2954C35.8974 52.6788 33.7424 54.1905 31.6884 55.8226C30.8672 58.6659 27.7091 69.3536 26.309 71.1282C25.6813 71.9744 24.7909 72.6092 23.7645 72.9424C22.7381 73.2755 21.6281 73.2899 20.5927 72.9834C18.6135 72.3281 17.4345 70.5132 17.4977 68.1336C17.4977 66.1877 19.5294 51.9407 21.7086 38.2382C22.6244 32.4608 26.0668 28.7201 29.0039 28.0143C31.2146 27.49 56.6906 27.4497 61.8594 27.4396L72.2814 9.74437C72.2814 8.16138 72.5446 2.93851 74.0079 1.16395C74.252 0.786755 74.5981 0.479832 75.0096 0.275704C75.421 0.0715753 75.8824 -0.0221661 76.3449 0.00441873C76.8251 0.123465 77.2678 0.352789 77.6346 0.672531C78.0015 0.992272 78.2815 1.39281 78.4504 1.83949C78.703 2.42429 79.8084 6.29606 80.3242 8.13112C100.136 13.9287 100.494 15.1286 100.663 15.7033C101.221 17.5484 96.8099 24.6669 94.7044 25.3424C93.1464 25.8365 86.5774 26.0986 83.9667 26.1793C83.0613 29.6175 79.282 44.0963 78.124 48.7445C77.145 52.6869 74.7658 54.048 73.0183 54.3203C72.3972 74.0724 70.0496 74.2539 69.1653 74.3244C68.7864 74.3446 68.2389 74.395 67.6073 74.395ZM38.2153 49.047C38.4662 49.0469 38.7088 49.1328 38.8995 49.289C44.4158 53.8867 61.4068 54.8244 61.5752 54.8244C61.8311 54.8386 62.0727 54.9416 62.2549 55.1142C62.4371 55.2869 62.5473 55.5172 62.5648 55.7621C62.8279 59.412 63.6175 69.2629 64.1333 70.9568C64.3544 71.6626 65.0702 72.5701 68.7548 72.3281C69.8075 70.8459 70.7023 61.4488 70.9234 53.3221C70.9291 53.1808 70.9659 53.0422 71.0312 52.9154C71.0965 52.7886 71.1889 52.6764 71.3024 52.586C71.4147 52.4944 71.5458 52.4265 71.6872 52.3865C71.8287 52.3466 71.9773 52.3355 72.1235 52.3541C72.4077 52.3541 75.0185 52.5255 76.0607 48.321C77.3766 43.0477 82.0612 25.1307 82.1033 24.9895C82.1603 24.7777 82.2877 24.5894 82.4662 24.453C82.6447 24.3166 82.8646 24.2395 83.0929 24.2333C86.7248 24.1224 92.8937 23.83 94.0307 23.467C95.1676 23.104 98.2416 18.0626 98.589 16.4091C96.852 15.4008 87.588 12.376 79.1452 9.8956C78.9728 9.84632 78.8166 9.75558 78.6912 9.63203C78.5659 9.50847 78.4757 9.35623 78.4293 9.18981C77.6187 6.2759 76.6713 3.02925 76.5028 2.63602C76.4086 2.38935 76.249 2.17044 76.0396 2.00082C76.0396 2.00082 75.9028 2.11171 75.6501 2.4142C74.829 3.42247 74.4079 7.45558 74.3658 10.0267C74.368 10.197 74.3206 10.3646 74.229 10.5107L63.3754 28.942C63.284 29.0977 63.151 29.2274 62.9901 29.3177C62.8291 29.4081 62.646 29.4559 62.4595 29.4562C50.5427 29.4562 31.0567 29.5973 29.4987 29.9704C27.7512 30.3939 24.6351 33.096 23.7719 38.5407C21.6664 51.6483 19.6347 66.349 19.561 68.1639C19.561 69.6561 20.1505 70.7148 21.2348 71.0778C21.852 71.2423 22.5075 71.218 23.1096 71.0083C23.7117 70.7986 24.2303 70.414 24.593 69.9082C25.5299 68.7184 28.2249 60.1279 29.7092 54.9857C29.7647 54.7938 29.8782 54.6219 30.0356 54.4917C32.4321 52.5625 34.9647 50.7938 37.6152 49.1982C37.7948 49.0912 38.0039 49.0385 38.2153 49.047Z" fill="#323232"/>
<path d="M78.5346 46.9901C78.391 46.991 78.2488 46.9637 78.1167 46.9099C77.9845 46.8562 77.8652 46.7771 77.7661 46.6775L59.8698 28.3269C59.7043 28.1548 59.6065 27.933 59.593 27.6993C59.5796 27.4657 59.6514 27.2349 59.7961 27.0464L63.9544 21.5916C64.0437 21.4736 64.1586 21.3756 64.2913 21.3042C64.424 21.2328 64.5712 21.1899 64.7229 21.1782C64.8736 21.1677 65.025 21.1883 65.1667 21.2387C65.3084 21.2892 65.4371 21.3683 65.544 21.4706L82.5139 37.351C82.6614 37.4897 82.7631 37.6669 82.8061 37.8605C82.8492 38.0542 82.8318 38.2557 82.7561 38.4399L79.5979 46.3448C79.5327 46.5048 79.426 46.6462 79.2878 46.7556C79.1497 46.865 78.9846 46.9388 78.8083 46.9699C78.7199 46.9965 78.6263 47.0034 78.5346 46.9901ZM62.0174 27.611L78.2083 44.177L80.5558 38.3794L64.9545 23.7695L62.0174 27.611Z" fill="#323232"/>
<path d="M83.2928 17.0845C84.1417 17.0845 84.8298 16.4255 84.8298 15.6125C84.8298 14.7995 84.1417 14.1404 83.2928 14.1404C82.444 14.1404 81.7559 14.7995 81.7559 15.6125C81.7559 16.4255 82.444 17.0845 83.2928 17.0845Z" fill="#323232"/>
<path d="M100.358 18.3751C101.788 18.3751 102.947 17.2647 102.947 15.8948C102.947 14.5249 101.788 13.4144 100.358 13.4144C98.9273 13.4144 97.7678 14.5249 97.7678 15.8948C97.7678 17.2647 98.9273 18.3751 100.358 18.3751Z" fill="#323232"/>
<path d="M100.358 19.3835C99.6342 19.3855 98.9265 19.1818 98.3241 18.7981C97.7218 18.4144 97.252 17.8681 96.9742 17.2284C96.6964 16.5887 96.6232 15.8844 96.7638 15.2047C96.9044 14.5251 97.2525 13.9008 97.764 13.4109C98.2755 12.9209 98.9274 12.5875 99.637 12.4528C100.347 12.3182 101.082 12.3883 101.75 12.6544C102.418 12.9204 102.988 13.3704 103.389 13.9473C103.789 14.5242 104.002 15.2021 104 15.8949C104 16.8201 103.616 17.7075 102.933 18.3617C102.25 19.016 101.324 19.3835 100.358 19.3835ZM100.358 14.4127C100.051 14.4107 99.7508 14.496 99.495 14.6576C99.2391 14.8192 99.0391 15.05 98.9204 15.3207C98.8016 15.5913 98.7695 15.8896 98.828 16.1778C98.8865 16.466 99.0331 16.731 99.2491 16.9393C99.4651 17.1476 99.7408 17.2898 100.041 17.3478C100.342 17.4058 100.653 17.3771 100.937 17.2652C101.22 17.1533 101.462 16.9633 101.633 16.7194C101.804 16.4754 101.895 16.1885 101.895 15.8949C101.896 15.7007 101.857 15.5082 101.781 15.3285C101.704 15.1487 101.591 14.9852 101.448 14.8475C101.305 14.7097 101.135 14.6003 100.948 14.5257C100.761 14.4511 100.56 14.4127 100.358 14.4127Z" fill="#323232"/>
<path d="M41 28.4032H58.8324" stroke="#3DACEF" stroke-width="2"/>
<path d="M53.5214 73.9166V74.9941H47.7753V73.9166H53.5214Z" fill="#3DACEF"/>
<path d="M53.5327 67.7728V68.8928H50.6765V67.7728H53.5327Z" fill="#3DACEF"/>
<path d="M53.5327 70.8337V71.9537H50.6765V70.8337H53.5327Z" fill="#3DACEF"/>
<path d="M53.5327 64.7118V65.8318H50.6765V64.7118H53.5327Z" fill="#3DACEF"/>
<path d="M53.5327 61.6525V62.7725H50.6765V61.6525H53.5327Z" fill="#3DACEF"/>
<path d="M53.521 58.6103V59.6879H47.7749V58.6103H53.521Z" fill="#3DACEF"/>
<path d="M53.5327 52.4678V53.5878H50.6765V52.4678H53.5327Z" fill="#3DACEF"/>
<path d="M53.5327 55.5292V56.6492H50.6765V55.5292H53.5327Z" fill="#3DACEF"/>
<path d="M53.5327 49.406V50.526H50.6765V49.406H53.5327Z" fill="#3DACEF"/>
<path d="M53.5327 46.3445V47.4645H50.6765V46.3445H53.5327Z" fill="#3DACEF"/>
<path d="M53.521 43.3081V44.3856H47.7749V43.3081H53.521Z" fill="#3DACEF"/>
<path d="M53.5327 37.1597V38.2797H50.6765V37.1597H53.5327Z" fill="#3DACEF"/>
<path d="M53.5327 40.2212V41.3412H50.6765V40.2212H53.5327Z" fill="#3DACEF"/>
<path d="M53.5327 34.0979V35.2179H50.6765V34.0979H53.5327Z" fill="#3DACEF"/>
<path d="M53.5327 31.0422V32.1622H50.6765V31.0422H53.5327Z" fill="#3DACEF"/>
<path d="M53.521 28.0001V29.0776H47.7749V28.0001H53.521Z" fill="#3DACEF"/>
</g>
<defs>
<clipPath id="clip0_49_1288">
<rect width="104" height="75" fill="white"/>
</clipPath>
</defs>
</svg>
