<svg width="71" height="64" viewBox="0 0 71 64" fill="none" xmlns="http://www.w3.org/2000/svg">
<path d="M53.4268 56.0679H51.028C50.4067 56.0679 49.9033 56.5713 49.9033 57.1925C49.9033 57.8138 50.4067 58.3172 51.028 58.3172H53.4268C54.0481 58.3172 54.5515 57.8138 54.5515 57.1925C54.5515 56.5713 54.0481 56.0679 53.4268 56.0679Z" fill="#323232"/>
<path d="M70.4219 50.7415C70.4219 50.3446 70.4099 49.9413 70.3589 49.5511L64.8203 7.08584C64.359 3.55029 61.3226 0.884277 57.7571 0.884277H13.1067C9.54133 0.884277 6.50494 3.55029 6.04352 7.08584L0.504767 49.551C0.453771 49.9413 0.441739 50.1944 0.441739 50.7414L0.431896 54.7919C0.428341 57.0088 1.29322 59.0986 2.86795 60.6758C4.43885 62.2493 6.52969 63.1156 8.75547 63.1156H62.1083C64.3341 63.1156 66.4249 62.2493 67.9958 60.6758C69.5706 59.0984 70.4356 57.009 70.4319 54.7912L70.4219 50.7415ZM58.2251 58.3171H62.662C64.6704 58.3171 66.5902 57.5366 68.0287 56.1594C67.7775 57.2562 67.223 58.266 66.4039 59.0865C65.258 60.2343 63.7325 60.8663 62.1083 60.8663H8.75547C7.13125 60.8663 5.60561 60.2343 4.4599 59.0865C3.64068 58.266 3.08615 57.256 2.83514 56.1594C4.27356 57.5366 6.19336 58.3171 8.20176 58.3171H46.2288C46.8501 58.3171 47.3535 57.8137 47.3535 57.1924C47.3535 56.5712 46.8501 56.0678 46.2288 56.0678H8.2019C6.61568 56.0678 5.10576 55.3842 4.05918 54.1923C3.0126 53.0005 2.53026 51.4148 2.73533 49.8418L8.27395 7.37664C8.58949 4.95768 10.6671 3.13344 13.1067 3.13344H57.7571C60.1967 3.13344 62.2742 4.95768 62.5898 7.37664L68.1286 49.8419C68.3337 51.4148 67.8512 53.0004 66.8047 54.1924C65.7583 55.3845 64.2482 56.0679 62.662 56.0679H58.2251C57.6039 56.0679 57.1005 56.5713 57.1005 57.1926C57.1005 57.8138 57.604 58.3171 58.2251 58.3171Z" fill="#323232"/>
<path d="M23.4354 5.68274H13.8383C13.217 5.68274 12.7136 6.18614 12.7136 6.80739C12.7136 7.42864 13.217 7.93204 13.8383 7.93204H23.4354C24.0566 7.93204 24.56 7.42864 24.56 6.80739C24.56 6.18614 24.0566 5.68274 23.4354 5.68274Z" fill="#323232"/>
<path d="M35.4319 5.68274C27.5355 5.68274 21.1112 12.107 21.1112 20.0035C21.1112 20.6247 21.6146 21.1281 22.2359 21.1281H32.0914C32.2623 21.6374 32.549 22.1042 32.94 22.4952C32.9398 22.4952 32.9401 22.4953 32.9401 22.4953C33.6057 23.1609 34.4905 23.5274 35.4318 23.5274C36.3731 23.5274 37.2581 23.1609 37.9235 22.4953C38.1621 22.2567 38.5013 21.7622 38.8894 21.1281H48.628C49.2493 21.1281 49.7527 20.6247 49.7527 20.0035C49.7527 12.107 43.3286 5.68274 35.4319 5.68274ZM36.3331 20.9049C36.0924 21.1458 35.7724 21.2781 35.4318 21.2781C35.0912 21.2781 34.7715 21.1455 34.5306 20.9049L34.5304 20.9047C34.2898 20.6641 34.1572 20.344 34.1572 20.0035C34.1572 19.6629 34.2898 19.3431 34.5306 19.1021C34.8733 18.7615 36.7047 17.7236 38.8364 16.5989C37.7119 18.7306 36.6738 20.5621 36.3331 20.9049ZM40.1723 18.879V18.8788C41.1021 17.1668 42.0214 15.3412 42.437 14.5066C42.6525 14.0739 42.5673 13.552 42.2255 13.2101C41.8834 12.8683 41.3613 12.783 40.929 12.9986C39.3052 13.8071 33.93 16.5219 32.9404 17.5118C32.5494 17.9027 32.2624 18.3697 32.0916 18.879H23.4126C23.541 17.495 23.906 16.1792 24.4633 14.9695L25.5194 15.5793C25.6966 15.6815 25.8899 15.7301 26.0807 15.7301C26.4694 15.7301 26.8474 15.5284 27.0556 15.1676C27.3662 14.6298 27.1819 13.9419 26.6439 13.6313L25.5912 13.0236C26.378 11.9177 27.3456 10.9496 28.4515 10.1629L29.0595 11.2157C29.2677 11.5765 29.6459 11.7782 30.0346 11.7782C30.2253 11.7782 30.4189 11.7297 30.5958 11.6274C31.1336 11.3169 31.3179 10.629 31.0075 10.0911L30.3974 9.03454C31.607 8.47713 32.9233 8.11346 34.3072 7.98495V9.2068C34.3072 9.82805 34.8106 10.3315 35.4318 10.3315C36.0531 10.3315 36.5565 9.82805 36.5565 9.2068V7.98495C37.9405 8.11346 39.2565 8.47713 40.4662 9.03454L39.8562 10.0911C39.5455 10.629 39.7298 11.3168 40.2678 11.6274C40.445 11.7297 40.6383 11.7782 40.8291 11.7782C41.2178 11.7782 41.5958 11.5765 41.8041 11.2157L42.412 10.1629C43.5179 10.9496 44.4856 11.9177 45.2723 13.0236L44.2195 13.6313C43.6817 13.9418 43.4974 14.6298 43.8079 15.1676C44.0161 15.5284 44.3943 15.7301 44.783 15.7301C44.9737 15.7301 45.1673 15.6815 45.3442 15.5793L46.4003 14.9695C46.9578 16.1792 47.3228 17.4951 47.451 18.879H40.1723Z" fill="#3DACEF"/>
<path d="M57.0253 5.68274H47.4282C46.807 5.68274 46.3036 6.18614 46.3036 6.80739C46.3036 7.42864 46.807 7.93204 47.4282 7.93204H57.0253C57.6466 7.93204 58.15 7.42864 58.15 6.80739C58.15 6.18614 57.6466 5.68274 57.0253 5.68274Z" fill="#323232"/>
</svg>
