<svg width="522" height="379" viewBox="0 0 522 379" fill="none" xmlns="http://www.w3.org/2000/svg">
<g clip-path="url(#clip0_3_82)">
<path d="M388.29 57.9715C388.29 57.9715 400.773 11.18 409.727 9.80974C418.681 8.43949 417.469 57.9715 417.469 57.9715H388.29Z" fill="#F56132"/>
<path d="M417.469 63.0465H388.29C387.472 63.0717 386.659 62.9128 385.916 62.5827C385.173 62.2525 384.52 61.7601 384.009 61.1444C383.498 60.5287 383.143 59.8068 382.972 59.0358C382.8 58.2649 382.818 57.4661 383.023 56.7028C391.872 23.563 400.562 5.95279 408.726 4.78554C409.842 4.60542 410.986 4.67169 412.072 4.97937C413.157 5.28704 414.156 5.82806 414.994 6.56174C422.526 12.8547 422.947 41.5793 422.578 58.073C422.552 59.3754 422.007 60.6181 421.056 61.5439C420.105 62.4697 418.82 63.0077 417.469 63.0465ZM395.137 52.8965H412.255C412.682 40.7497 411.693 28.5951 409.305 16.661C403.21 28.1823 398.509 40.3406 395.295 52.8965H395.137Z" fill="#093F68"/>
<path d="M140.95 160.943C140.95 160.943 107.399 160.943 100.816 136.38C94.2318 111.817 117.775 118.161 134.788 104.103C151.8 90.0455 154.171 78.7283 139.054 73.1458C123.938 67.5633 55.4665 82.23 58.7847 120.445C62.1029 158.659 89.0174 191.85 134.314 182.309L140.95 160.943Z" fill="#F6BF7D"/>
<path d="M119.145 189.008C106.257 189.184 93.6622 185.299 83.2764 177.945C66.4746 165.968 55.6245 145.16 53.5177 120.851C52.359 107.453 58.7847 95.4758 72.1103 85.3258C94.1265 69.3395 128.994 63.9093 140.898 68.1723C144.112 68.9544 147.043 70.5691 149.373 72.8412C151.704 75.1134 153.344 77.9566 154.118 81.0628C155.54 88.8275 150.22 97.7595 138.317 107.707C132.21 112.384 125.266 115.945 117.828 118.212C106.662 122.12 102.922 123.287 105.977 134.909C111.244 155.209 140.74 155.665 141.056 155.665C141.875 155.671 142.681 155.86 143.411 156.219C144.141 156.578 144.774 157.095 145.26 157.731C145.746 158.366 146.071 159.102 146.21 159.88C146.348 160.658 146.297 161.457 146.059 162.212L139.476 183.527C139.203 184.398 138.693 185.183 137.998 185.799C137.303 186.415 136.449 186.84 135.525 187.029C130.159 188.277 124.665 188.941 119.145 189.008ZM130.206 77.0535C111.677 77.731 93.7344 83.4881 78.4835 93.6488C67.9494 101.261 63.1564 110.143 64.0518 120.039C65.8952 141.405 75.1652 159.573 89.5442 169.774C95.3451 173.812 101.966 176.623 108.974 178.022C115.981 179.422 123.217 179.378 130.206 177.894L134.051 165.511C122.779 164.039 101.342 158.507 95.7066 137.649C90.0709 116.791 103.449 112.629 114.089 108.874C120.345 107.036 126.199 104.112 131.364 100.246C143.9 89.8425 144.005 84.463 143.742 83.042C143.321 80.606 139.95 78.8805 137.211 77.967C134.949 77.2707 132.578 76.9615 130.206 77.0535Z" fill="#093F68"/>
<path d="M370.382 246.457C370.382 246.457 433.586 349.023 424.211 358.107C414.836 367.191 402.037 370.389 392.609 360.391C383.181 350.393 329.826 284.266 331.248 282.845L370.382 246.457Z" fill="#093F68"/>
<path d="M406.092 371.607H405.513C402.296 371.495 399.138 370.742 396.237 369.397C393.337 368.052 390.756 366.144 388.659 363.791C383.392 358.209 366.695 337.807 353.633 321.466C323.189 283.352 323.558 283.048 327.298 279.242L366.59 242.803C367.162 242.276 367.85 241.879 368.603 241.644C369.355 241.408 370.154 241.339 370.938 241.441C371.723 241.543 372.473 241.815 373.134 242.235C373.794 242.656 374.348 243.214 374.754 243.869C374.754 243.869 390.818 269.904 405.355 296.497C434.008 348.972 432.164 357.397 427.793 361.71C422.192 367.631 414.395 371.187 406.092 371.607ZM337.621 283.809C346.628 296.801 387.974 348.059 396.349 356.94C397.482 358.286 398.899 359.385 400.506 360.164C402.113 360.943 403.874 361.383 405.671 361.457C408.357 361.333 410.991 360.7 413.422 359.594C415.853 358.488 418.034 356.931 419.839 355.011C420.84 345.826 395.137 297.258 369.118 254.577L337.621 283.809Z" fill="#093F68"/>
<path d="M190.144 229.811C190.144 231.131 230.753 340.954 227.014 360.543C224.643 372.875 199.414 373.992 188.196 351.916C173.922 323.902 149.114 261.175 149.114 261.175L190.144 229.811Z" fill="#093F68"/>
<path d="M213.53 374.347C207.035 374.038 200.761 371.969 195.432 368.378C190.102 364.787 185.933 359.82 183.403 354.047C169.182 326.135 145.164 265.438 144.163 262.697C143.763 261.691 143.705 260.587 143.998 259.547C144.292 258.507 144.922 257.584 145.796 256.912L186.879 225.497C187.66 224.907 188.599 224.541 189.587 224.442C190.575 224.343 191.571 224.516 192.462 224.939C193.181 225.276 193.811 225.767 194.303 226.374C194.796 226.981 195.139 227.687 195.306 228.441C195.622 229.405 196.728 232.653 198.414 237.474C215.69 286.956 235.283 345.724 232.123 361.152C231.337 364.571 229.425 367.653 226.672 369.94C223.919 372.226 220.474 373.594 216.848 373.84C215.757 374.087 214.648 374.256 213.53 374.347ZM155.593 262.697C160.86 276.197 180.98 325.83 193.094 349.53C198.782 360.797 208.579 364.755 215.637 363.943C216.954 363.943 221.325 362.928 222.01 359.427C223.906 349.581 212.687 309.692 188.617 240.824L187.722 238.134L155.593 262.697Z" fill="#093F68"/>
<path d="M313.235 144.094L367.538 51.3232C367.538 51.3232 368.012 18.5387 375.122 9.9112C382.233 1.2837 386.921 8.99769 388.343 12.1949C389.765 15.3922 398.245 45.8422 398.245 45.8422C398.245 45.8422 497.37 74.9727 499.266 81.3672C501.162 87.7617 481.306 120.952 472.931 123.693C464.556 126.433 416.732 127.803 416.732 127.803C416.732 127.803 393.136 218.291 386.552 245.137C379.968 271.984 360.954 269.497 360.954 269.497C360.954 269.497 358.215 369.069 346.417 369.982C334.619 370.896 320.082 370.439 316.658 359.528C313.235 348.617 308.547 281.982 308.547 281.982C308.547 281.982 221.167 277.465 191.935 252.902C178.904 260.808 166.445 269.557 154.645 279.089C154.645 279.089 135.209 346.942 128.31 355.874C116.933 370.287 93.3365 366.582 93.7052 343.998C93.7052 334.508 104.239 261.834 114.773 194.184C119.25 165.409 135.841 149.626 147.323 146.885C158.806 144.145 313.235 144.094 313.235 144.094Z" fill="#F7BF7D"/>
<path d="M338.991 375.362C329.194 375.362 315.289 373.332 311.497 360.898C308.547 351.053 304.755 302.637 303.596 286.702C285.425 285.433 220.167 279.495 191.567 259.094C180.338 266.057 169.556 273.666 159.28 281.881C155.171 296.192 139.37 349.987 132.365 358.919C129.225 363.178 124.77 366.374 119.634 368.05C114.499 369.727 108.946 369.799 103.765 368.257C93.8631 364.958 87.9641 355.823 88.2802 343.846C88.2802 334.052 98.4455 262.342 109.348 193.372C113.931 164.293 131.154 145.464 145.849 141.912C156.909 139.273 284.372 139.07 310.233 139.019L362.376 49.953C362.376 41.9853 363.693 15.6968 371.014 6.76479C372.236 4.86626 373.967 3.32141 376.026 2.29396C378.084 1.26651 380.393 0.79468 382.707 0.928491C385.109 1.52769 387.324 2.68196 389.16 4.29133C390.995 5.9007 392.396 7.91673 393.241 10.165C394.505 13.1085 400.036 32.5965 402.616 41.833C501.742 71.0142 503.532 77.0535 504.375 79.9463C507.167 89.2335 485.098 125.063 474.564 128.463C466.769 130.95 433.902 132.27 420.84 132.676C416.311 149.981 397.402 222.858 391.608 246.254C386.71 266.097 374.806 272.949 366.063 274.319C362.956 373.738 351.21 374.652 346.786 375.007C344.89 375.108 342.151 375.362 338.991 375.362ZM191.935 247.777C193.191 247.776 194.405 248.208 195.359 248.995C222.958 272.137 307.968 276.856 308.811 276.856C310.091 276.928 311.3 277.446 312.211 278.315C313.123 279.184 313.674 280.343 313.762 281.576C315.078 299.948 319.029 349.53 321.609 358.056C322.715 361.609 326.297 366.176 344.732 364.958C349.999 357.498 354.476 310.199 355.582 269.295C355.611 268.583 355.794 267.886 356.121 267.248C356.448 266.61 356.91 266.045 357.478 265.59C358.04 265.129 358.696 264.787 359.403 264.586C360.111 264.384 360.855 264.329 361.586 264.422C363.008 264.422 376.07 265.285 381.285 244.122C387.869 217.58 411.307 127.397 411.517 126.687C411.803 125.621 412.44 124.673 413.333 123.987C414.226 123.3 415.326 122.912 416.469 122.881C434.64 122.322 465.505 120.851 471.193 119.024C476.881 117.197 492.261 91.8218 493.999 83.4988C485.309 78.4238 438.959 63.1987 396.717 50.7142C395.855 50.4662 395.073 50.0094 394.446 49.3876C393.819 48.7657 393.368 47.9994 393.136 47.1617C389.08 32.495 384.34 16.1535 383.497 14.1742C383.026 12.9327 382.227 11.8308 381.18 10.977C381.18 10.977 380.495 11.5352 379.231 13.0577C375.122 18.1327 373.016 38.4328 372.805 51.374C372.816 52.2315 372.579 53.075 372.12 53.81L317.817 146.581C317.36 147.365 316.695 148.018 315.889 148.473C315.084 148.927 314.168 149.168 313.235 149.169C253.612 149.169 156.119 149.88 148.324 151.758C139.581 153.889 123.991 167.49 119.672 194.895C109.138 260.87 98.9722 334.864 98.6035 343.999C98.6035 351.51 101.553 356.838 106.978 358.665C110.066 359.493 113.345 359.371 116.358 358.316C119.37 357.26 121.965 355.324 123.78 352.778C128.468 346.79 141.951 303.551 149.378 277.668C149.655 276.702 150.223 275.837 151.01 275.182C163.001 265.471 175.672 256.569 188.933 248.538C189.832 247.999 190.878 247.734 191.935 247.777Z" fill="#093F68"/>
<path d="M409.727 192.561L324.822 112.579L303.965 140.034L393.662 232.349L409.727 192.561Z" fill="#F56132"/>
<path d="M393.662 237.423C392.944 237.428 392.232 237.29 391.571 237.02C390.91 236.749 390.313 236.351 389.817 235.85L300.278 143.485C299.45 142.619 298.96 141.502 298.893 140.326C298.826 139.15 299.185 137.989 299.909 137.04L320.714 109.584C321.161 108.99 321.736 108.497 322.4 108.137C323.063 107.778 323.8 107.562 324.559 107.503C325.313 107.45 326.071 107.554 326.78 107.808C327.488 108.062 328.132 108.46 328.667 108.975L413.572 188.906C414.31 189.605 414.818 190.497 415.034 191.471C415.249 192.446 415.162 193.46 414.783 194.387L398.982 234.175C398.656 234.981 398.122 235.692 397.431 236.243C396.74 236.794 395.914 237.165 395.032 237.322C394.589 237.456 394.121 237.49 393.662 237.423ZM311.023 139.882L392.03 223.264L403.775 194.083L325.718 120.546L311.023 139.882Z" fill="#093F68"/>
<path d="M417.469 86.8989C421.716 86.8989 425.159 83.5816 425.159 79.4895C425.159 75.3973 421.716 72.08 417.469 72.08C413.222 72.08 409.779 75.3973 409.779 79.4895C409.779 83.5816 413.222 86.8989 417.469 86.8989Z" fill="#093F68"/>
<path d="M517.952 378.407H3.37101C2.67193 378.407 2.00147 377.872 1.50714 376.921C1.01282 375.969 0.735107 374.678 0.735107 373.332C0.735107 371.986 1.01282 370.695 1.50714 369.743C2.00147 368.792 2.67193 368.257 3.37101 368.257H517.952C518.651 368.257 519.322 368.792 519.816 369.743C520.31 370.695 520.588 371.986 520.588 373.332C520.588 374.678 520.31 375.969 519.816 376.921C519.322 377.872 518.651 378.407 517.952 378.407Z" fill="#093F68"/>
<path d="M502.848 93.3949C510.004 93.3949 515.805 87.8055 515.805 80.9105C515.805 74.0155 510.004 68.4259 502.848 68.4259C495.692 68.4259 489.891 74.0155 489.891 80.9105C489.891 87.8055 495.692 93.3949 502.848 93.3949Z" fill="#093F68"/>
<path d="M502.848 98.47C499.229 98.48 495.688 97.4545 492.674 95.5233C489.66 93.5921 487.31 90.8422 485.92 87.6223C484.53 84.4024 484.164 80.8574 484.867 77.4366C485.571 74.0159 487.313 70.8734 489.872 68.4075C492.431 65.9416 495.692 64.2633 499.243 63.5855C502.793 62.9076 506.472 63.2606 509.814 64.5998C513.155 65.9389 516.009 68.2039 518.014 71.1077C520.018 74.0114 521.082 77.4232 521.072 80.9105C521.072 85.5676 519.152 90.0339 515.734 93.3269C512.316 96.6199 507.681 98.47 502.848 98.47ZM502.848 73.4503C501.314 73.4402 499.812 73.8692 498.532 74.6828C497.252 75.4964 496.251 76.6579 495.657 78.0202C495.063 79.3825 494.902 80.8841 495.195 82.3345C495.488 83.785 496.221 85.1191 497.302 86.1675C498.382 87.2159 499.762 87.9315 501.265 88.2235C502.768 88.5155 504.328 88.3707 505.746 87.8076C507.164 87.2444 508.376 86.2883 509.229 85.0604C510.082 83.8325 510.538 82.3882 510.538 80.9105C510.545 79.9332 510.351 78.9642 509.968 78.0594C509.584 77.1546 509.019 76.3318 508.304 75.6384C507.589 74.9449 506.739 74.3946 505.803 74.019C504.866 73.6435 503.862 73.4502 502.848 73.4503Z" fill="#093F68"/>
</g>
<defs>
<clipPath id="clip0_3_82">
<rect width="520.337" height="377.501" fill="white" transform="translate(0.735107 0.90625)"/>
</clipPath>
</defs>
</svg>
